<?xml version="1.0" standalone="no"?>
<!DOCTYPE svg PUBLIC "-//W3C//DTD SVG 20010904//EN"
 "http://www.w3.org/TR/2001/REC-SVG-20010904/DTD/svg10.dtd">
<svg version="1.0" xmlns="http://www.w3.org/2000/svg"
 width="192.000000pt" height="192.000000pt" viewBox="0 0 192.000000 192.000000"
 preserveAspectRatio="xMidYMid meet">

<g transform="translate(0.000000,192.000000) scale(0.100000,-0.100000)"
fill="#000000" stroke="none">
<path d="M870 1513 c-54 -9 -159 -48 -240 -89 -70 -35 -91 -51 -118 -92 -72
-107 -112 -253 -112 -409 0 -79 2 -94 14 -84 9 7 15 46 19 119 5 103 32 215
58 245 5 7 25 37 44 68 l34 56 138 38 c235 64 352 59 564 -24 l104 -41 42 -88
c47 -96 63 -168 63 -281 1 -50 6 -82 15 -95 14 -18 15 -18 21 -2 12 31 -4 228
-25 309 -23 88 -58 158 -108 216 -40 47 -189 124 -283 146 -61 14 -172 18
-230 8z"/>
<path d="M470 1005 c0 -63 4 -105 10 -105 6 0 10 23 10 50 0 65 24 69 41 8 7
-24 16 -47 21 -52 16 -19 18 2 4 49 -13 41 -13 49 0 62 19 19 18 58 -2 77 -8
9 -31 16 -50 16 l-34 0 0 -105z m65 79 c9 -9 14 -23 11 -31 -3 -8 -6 -19 -6
-24 0 -5 -11 -9 -25 -9 -22 0 -25 4 -25 40 0 44 16 52 45 24z"/>
<path d="M910 1007 l0 -104 35 -1 c30 -1 37 3 46 26 7 17 8 44 2 72 -7 41 -11
45 -35 45 -25 -1 -28 3 -28 32 0 18 -4 33 -10 33 -6 0 -10 -41 -10 -103z m58
-34 c-2 -44 -7 -58 -18 -58 -11 0 -16 14 -18 58 -3 52 -1 57 18 57 19 0 21 -5
18 -57z"/>
<path d="M1030 1005 c0 -63 4 -105 10 -105 6 0 10 42 10 105 0 63 -4 105 -10
105 -6 0 -10 -42 -10 -105z"/>
<path d="M1305 1088 c-7 -19 -8 -45 -7 -120 2 -53 5 -68 17 -68 12 0 15 14 15
64 0 42 4 66 13 70 10 5 10 7 0 12 -7 3 -13 14 -13 24 0 10 6 21 13 23 6 3 2
6 -11 6 -12 1 -25 -5 -27 -11z"/>
<path d="M610 1030 c-8 -16 -8 -20 4 -20 7 0 17 7 20 16 3 8 10 12 16 9 19
-12 10 -41 -21 -64 -37 -28 -37 -64 1 -70 24 -3 24 -2 8 15 -12 14 -14 24 -7
37 15 26 27 20 31 -15 2 -17 9 -33 16 -36 15 -5 17 100 2 129 -14 25 -56 25
-70 -1z"/>
<path d="M720 976 c0 -44 4 -76 10 -76 6 0 10 28 10 65 0 36 0 68 1 72 0 4 -4
9 -10 11 -7 2 -11 -23 -11 -72z"/>
<path d="M773 1035 c12 -12 17 -34 17 -76 0 -34 4 -59 10 -59 7 0 10 27 8 73
-3 68 -4 72 -27 75 -23 4 -23 3 -8 -13z"/>
<path d="M838 1039 c7 -8 12 -39 12 -76 0 -37 4 -63 10 -63 7 0 10 27 8 72 -3
64 -6 73 -23 76 -16 3 -18 1 -7 -9z"/>
<path d="M1101 1036 c-7 -9 -11 -37 -9 -73 l3 -58 35 0 c29 0 36 4 38 23 4 28
-14 29 -21 1 -8 -31 -31 -18 -35 19 -3 30 -1 32 28 32 29 0 31 2 28 33 -2 26
-8 33 -29 35 -14 2 -31 -4 -38 -12z m49 -27 c0 -12 -7 -19 -20 -19 -22 0 -29
35 -7 43 18 6 27 -2 27 -24z"/>
<path d="M1210 975 c0 -43 4 -75 10 -75 6 0 10 27 10 61 0 52 3 62 20 66 11 3
20 9 20 14 0 13 -14 11 -28 -3 -9 -9 -12 -9 -12 0 0 7 -4 12 -10 12 -6 0 -10
-32 -10 -75z"/>
<path d="M1364 1034 c3 -11 12 -48 20 -83 14 -59 14 -66 -2 -77 -16 -13 -16
-13 0 -14 23 0 30 13 50 95 20 81 21 95 9 95 -5 0 -12 -17 -15 -37 -14 -77
-19 -81 -30 -24 -6 30 -17 56 -25 59 -9 3 -11 -1 -7 -14z"/>
<path d="M510 855 c-23 -28 -22 -99 4 -252 37 -221 61 -262 135 -228 31 14 43
26 50 51 10 37 4 160 -10 186 -5 9 -9 29 -9 44 0 63 -32 157 -63 186 -35 31
-86 38 -107 13z"/>
<path d="M425 827 c-34 -29 -43 -79 -34 -182 14 -161 68 -282 129 -286 46 -3
53 0 41 14 -34 42 -84 299 -79 410 3 58 1 67 -14 67 -9 0 -29 -10 -43 -23z"/>
<path d="M1325 836 c-45 -20 -61 -44 -74 -116 -7 -36 -16 -83 -21 -105 -5 -22
-12 -77 -16 -122 -7 -89 -7 -89 53 -132 75 -52 108 10 149 283 27 182 2 233
-91 192z"/>
<path d="M1439 832 c0 -4 0 -34 1 -67 1 -80 -44 -337 -68 -386 l-19 -39 32 0
c42 0 79 29 98 78 26 64 47 187 47 271 0 70 -3 83 -25 109 -23 28 -64 48 -66
34z"/>
<path d="M357 760 c-10 -38 -9 -78 8 -176 21 -119 40 -176 71 -205 l25 -24
-25 45 c-30 56 -56 171 -65 292 -4 64 -9 85 -14 68z"/>
<path d="M1547 669 c-6 -112 -32 -231 -58 -277 -21 -37 -24 -46 -9 -37 46 29
108 317 82 384 -7 19 -10 3 -15 -70z"/>
<path d="M322 688 c-8 -20 -8 -50 4 -119 15 -95 27 -129 45 -129 7 0 9 10 4
28 -4 15 -15 77 -25 137 -15 98 -18 107 -28 83z"/>
<path d="M1576 628 c-4 -35 -14 -94 -22 -132 -8 -38 -12 -71 -10 -73 24 -24
74 195 56 242 -5 14 -11 25 -13 25 -3 0 -8 -28 -11 -62z"/>
</g>
</svg>
