<svg version="1.1" xmlns="http://www.w3.org/2000/svg" width="48" height="48"><defs><linearGradient x1="8.44323" y1="9.75857" x2="39.91034" y2="38.59501" gradientUnits="userSpaceOnUse" id="color-1"><stop offset="1" stop-color="#000000" stop-opacity="0.01"></stop><stop offset="1" stop-color="#000000" stop-opacity="0"></stop></linearGradient><filter id="dropshadow-base"><feColorMatrix type="matrix" values="0 0 0 0 0  0 0 0 0 0  0 0 0 0 0  0 0 0 .8 0"></feColorMatrix> <feOffset dx="0" dy="1"></feOffset> <feGaussianBlur stdDeviation="1"></feGaussianBlur> <feComposite in="SourceGraphic"></feComposite></filter><filter id="dropshadow-banner" x="-10%" y="-10%" width="120%" height="130%"><feColorMatrix type="matrix" values="0 0 0 0 0  0 0 0 0 0  0 0 0 0 0  0 0 0 .4 0"></feColorMatrix> <feOffset dx="0" dy="1"></feOffset> <feGaussianBlur stdDeviation="0.5"></feGaussianBlur> <feComposite in="SourceGraphic"></feComposite></filter></defs><g fill="none" fill-rule="nonzero" stroke="none" stroke-width="none" stroke-linecap="butt" stroke-linejoin="miter" stroke-miterlimit="10" stroke-dasharray="" stroke-dashoffset="0" font-family="none" font-weight="none" font-size="none" text-anchor="none" style="mix-blend-mode: normal"><path d="M2,24c0,-12.15026 9.84974,-22 22,-22c12.15026,0 22,9.84974 22,22c0,12.15026 -9.84974,22 -22,22c-12.15026,0 -22,-9.84974 -22,-22z" id="base 1 9" fill="#ffffff" stroke-width="1"></path><path d="M34.57343,13.96816c1.20839,1.40173 2.05426,3.09347 2.61012,5.22022c0.50752,1.95759 0.8942,6.71862 0.60419,7.46782c-0.10482,0.27952 -0.1465,0.35698 -0.28936,0.21412l-0.35355,-0.35355c-0.05477,-0.05477 -0.1244,-0.14191 -0.21816,-0.26246c-0.21751,-0.31418 -0.33834,-1.08754 -0.36252,-2.29593c0,-2.73095 -0.38668,-4.47102 -1.52256,-6.79111l-0.88914,-1.86294l-2.28579,-0.90113c-5.12355,-2.00592 -7.95116,-2.12675 -13.63057,-0.58002l-3.33514,0.91838l-0.82169,1.35339c-0.45919,0.7492 -0.94254,1.47422 -1.06338,1.6434c-0.27373,0.31585 -0.55206,1.00779 -0.78901,1.89401h0.74963c0.44552,0 0.98204,0.15926 1.19017,0.36739l0.35355,0.35355c0.00481,0.00481 0.00944,0.00964 0.01389,0.0145l0.0228,0.0228c0.46542,0.46542 0.48313,1.38964 0.02986,1.84291c-0.31418,0.31418 -0.31418,0.50752 0,1.4984c0.31846,1.06913 0.29435,1.58159 -0.03202,1.25521l-0.35355,-0.35355c-0.02037,-0.02037 -0.04193,-0.04402 -0.06465,-0.071c-0.12085,-0.12085 -0.33834,-0.67669 -0.50752,-1.25672c-0.08173,-0.29327 -0.17016,-0.52437 -0.25938,-0.69407c-0.21466,-0.01097 -0.37794,0.4075 -0.37794,1.24097c0,0.65253 -0.09667,1.20839 -0.24167,1.20839c-0.01004,0 -0.01984,-0.00486 -0.0294,-0.01442l-0.35355,-0.35355c-0.12852,-0.12852 -0.21228,-1.10601 -0.21228,-2.52319l0,-2.25691c-0.27172,1.10207 -0.47789,2.45356 -0.54065,3.74637c-0.07372,1.34539 -0.17555,2.21292 -0.3162,2.62404c0.30055,-0.21741 0.63709,-0.36752 0.80852,-0.36752l0.00002,0.00002c0.1025,0 0.17988,0.01739 0.23651,0.07403c0,0 0,0 0,0l0.35355,0.35355c0.04829,0.04829 0.08149,0.1251 0.10232,0.24398c0.06507,-0.35198 0.17277,-0.60995 0.32263,-0.79239c0.50752,-0.60419 1.74007,-0.43501 2.58594,0.31418v-0.00002c0.0118,0.01104 0.0236,0.02246 0.03541,0.03427l0.35355,0.35355c0.73796,0.73796 1.48715,2.96233 1.48715,4.46093c0,0.36252 0.09667,0.84587 0.21751,1.06338l-0.35355,-0.35355c-0.12085,-0.21751 -0.21751,-0.70086 -0.21751,-1.06338c0,-1.38157 -0.63675,-3.37998 -1.31442,-4.2619c-0.83611,-0.64544 -1.9614,-0.7643 -2.44053,-0.19391c-0.55586,0.6767 -0.53168,2.3926 0.09667,6.09026c0.53249,3.18054 0.95357,4.81847 1.58475,5.44965l-0.35355,-0.35355c-0.63118,-0.63118 -1.05226,-2.26911 -1.58475,-5.44965c-0.19154,-1.12715 -0.32694,-2.07015 -0.40688,-2.85571c0.15926,2.99875 1.17626,7.87832 1.89633,8.76781c0.29001,0.33834 0.12085,0.41085 -0.99087,0.33834c-0.35391,-0.02321 -0.69806,-0.20937 -1.02144,-0.53275c0,0 0,0 0,0l-0.35355,-0.35355c-1.02366,-1.02366 -1.83907,-3.4223 -2.09619,-6.37921c-0.20763,-2.37613 -0.01887,-3.58517 0.71338,-4.29974l-0.34837,-0.34837c-0.12243,-0.12243 -0.14751,-0.69515 -0.14751,-2.07047c0,-3.77015 0.96671,-7.29864 2.70679,-9.88458c0.65253,-0.99087 1.16005,-1.37755 2.85179,-2.22342c1.95759,-0.99087 4.49519,-1.93341 5.80024,-2.15093c1.40173,-0.24167 4.08434,-0.145 5.55856,0.19334v-0.00003c2.16877,0.50758 5.54899,2.22661 6.6921,3.36972l0.35355,0.35355c0.05428,0.05428 0.10352,0.10726 0.14734,0.15876zM15.15645,37.6886l1.67788,0.06057l-0.35355,-0.35355c0.7492,-0.33834 1.03921,-0.62835 1.20839,-1.23255l0.35355,0.35355c-0.16918,0.60419 -0.45919,0.8942 -1.20839,1.23255c-0.72343,0.33238 -1.24913,0.36818 -1.67788,-0.06057l0,0c0,0 0,0 0,0zM10.5991,31.22388c0.24227,2.78615 0.9802,5.07663 1.92098,6.18825c0.27047,0.22308 0.55352,0.35116 0.84309,0.37015c1.11172,0.07251 1.28088,0 0.99087,-0.33834c-0.82171,-1.01505 -2.0301,-7.22614 -1.90925,-9.90875c0.03284,-0.63479 0.04089,-1.02671 0.0062,-1.26556c-0.22161,0.00644 -0.69645,0.24581 -1.0302,0.55573c-0.82169,0.70086 -1.03921,1.90925 -0.82169,4.39852zM12.50834,22.52352c0,0.74926 0.02341,1.37562 0.06447,1.81859c0.04159,-0.22 0.06532,-0.51959 0.06532,-0.84293c0,-1.04871 0.2585,-1.4404 0.5526,-1.1463l0.35355,0.35355c0.14644,0.14644 0.30171,0.46291 0.43828,0.95296c0.1233,0.42273 0.27226,0.83261 0.39077,1.07062c0.14806,-0.02485 0.10768,-0.51971 -0.14013,-1.35166c-0.24549,-0.77422 -0.29916,-1.06154 -0.16103,-1.30004c-0.1098,0.05049 -0.28097,0.0827 -0.47629,0.0827c-0.22864,0 -0.37236,-0.01788 -0.46192,-0.10744l-0.35355,-0.35355c-0.11871,-0.11871 -0.14227,-0.36337 -0.14227,-0.85927c0,-0.42191 0.06087,-0.70685 0.17809,-0.85484h-0.30788zM13.24233,21.80746c0.33834,0 0.60419,-0.09667 0.60419,-0.21751c0,-0.12085 0.07251,-0.38668 0.145,-0.58002c0.05665,-0.15105 -0.00472,-0.39061 -0.13801,-0.59191c-0.5577,-0.42554 -0.86183,-0.16677 -0.86183,0.77629c0,0.26778 0.00687,0.46231 0.03188,0.6033c0.06252,0.00746 0.13493,0.00986 0.21876,0.00986zM14.34508,21.36348c-0.06681,0.17819 -0.13364,0.41796 -0.1437,0.54905c0.01022,-0.01074 0.02083,-0.02158 0.03183,-0.03258c0.39557,-0.39557 0.43243,-1.14983 0.12606,-1.64479c-0.244,-0.13924 -0.62776,-0.23792 -0.97004,-0.24834c0.10241,0.06504 0.21469,0.15634 0.33645,0.2739l0.35355,0.35355c0.21751,0.21751 0.33836,0.55586 0.26585,0.7492zM27.73398,10.43971c-1.47422,-0.33834 -4.15683,-0.43501 -5.55856,-0.19334c-1.30504,0.21751 -3.84265,1.16005 -5.80024,2.15093c-1.69174,0.84587 -2.19926,1.23255 -2.85179,2.22342c-1.74007,2.58594 -2.70679,6.11442 -2.70679,9.88458c0,0.77211 0.0079,1.29126 0.0365,1.61979c0.1891,-0.27139 0.31868,-1.19864 0.40748,-2.81921c0.12085,-2.48927 0.77337,-5.19606 1.40173,-5.92108c0.12085,-0.16918 0.60419,-0.8942 1.06338,-1.6434l0.82169,-1.35339l3.33514,-0.91838c5.67941,-1.54673 8.50702,-1.4259 13.63057,0.58002l2.51343,0.99087l0.35355,0.35355l1.01505,2.12675c1.13588,2.32009 1.52256,4.06016 1.52256,6.79111c0.02364,1.18178 0.13973,1.94748 0.34829,2.27451c0.05921,-0.00719 0.10056,-0.10343 0.1682,-0.2838c0.29001,-0.7492 -0.09667,-5.51023 -0.60419,-7.46782c-0.5542,-2.12039 -1.39667,-3.80837 -2.59929,-5.20763c-1.29502,-1.13591 -4.44041,-2.70625 -6.49672,-3.18751zM23.62546,20.78344c0,0.17303 0.00442,0.30923 0.02017,0.41588c0.08209,0.00876 0.18184,0.00877 0.30297,0.00393c0.26482,0 0.42888,0.02015 0.54509,0.13636l0.35355,0.35355c0.13832,0.13832 0.20884,0.41271 0.30078,0.95118c0.145,0.67669 0.12085,1.32922 -0.04833,1.74007c-0.21751,0.55586 -0.38668,0.65253 -1.11172,0.62835l-0.84587,-0.02418l-0.35355,-0.35355v-2.51343c0,-1.4984 0.09667,-2.48927 0.24167,-2.48927l0.00002,0.00002c0.02708,0 0.05247,0.01264 0.07586,0.03603c0,0 0,0 0,0l0.35355,0.35355c0.10188,0.10188 0.16582,0.40772 0.16582,0.7615zM23.1421,24.64515l0.49232,0.01407c0.12884,0.0043 0.24013,0.00478 0.33726,-0.00046c-0.01337,-0.00901 -0.02622,-0.01964 -0.03857,-0.03199l-0.35355,-0.35355c-0.14684,-0.14684 -0.22325,-0.53663 -0.25931,-1.32989c-0.07251,-1.25671 -0.02418,-1.37755 0.43501,-1.37755c0.16019,0 0.27038,0.0147 0.34288,0.08721l0.35355,0.35355c0.13533,0.13533 0.13935,0.47203 0.09214,1.29035c-0.03374,0.74238 -0.10282,1.13139 -0.23191,1.2986c0.20284,-0.08149 0.31074,-0.24906 0.43421,-0.56461c0.16918,-0.41085 0.19334,-1.06338 0.04833,-1.74007c-0.05481,-0.32101 -0.10201,-0.54817 -0.1605,-0.7086c-0.08933,-0.02022 -0.19764,-0.02539 -0.33182,-0.02539c-0.28835,0.01154 -0.4556,-0.00445 -0.55166,-0.10051l-0.35355,-0.35355c-0.10521,-0.10521 -0.12503,-0.30648 -0.12503,-0.67285c0,-0.06239 -0.00199,-0.12329 -0.00582,-0.18185c-0.07724,0.38859 -0.12399,1.18514 -0.12399,2.22712zM23.7938,24.3425c0.23913,-0.03284 0.35054,-0.38859 0.39648,-1.39918c0.02872,-0.49775 0.03848,-0.81731 0.01127,-1.02175c-0.02886,-0.00162 -0.05973,-0.00225 -0.09273,-0.00225c-0.45919,0 -0.50752,0.12085 -0.43501,1.37755c0.02226,0.48973 0.0599,0.82568 0.12,1.04563zM26.52559,22.52352c0,1.52256 -0.09667,2.53761 -0.24167,2.53761c-0.01004,0 -0.01984,-0.00486 -0.0294,-0.01442l-0.35355,-0.35355c-0.12852,-0.12852 -0.21228,-1.10601 -0.21228,-2.52319c0,-1.52256 0.09667,-2.53761 0.24167,-2.53761c0.01004,0 0.01984,0.00486 0.0294,0.01442l0.35355,0.35355c0.12852,0.12852 0.21228,1.10601 0.21228,2.52319zM26.09087,24.15017c0.05135,-0.44558 0.08117,-1.13463 0.08117,-1.98021c0,-0.64676 -0.01744,-1.20195 -0.04863,-1.62666c-0.05135,0.44558 -0.08117,1.13463 -0.08117,1.98021c0,0.64676 0.01744,1.20195 0.04863,1.62666zM33.60673,20.39676c-0.16918,0.04833 -0.31418,0.31418 -0.31418,0.55586c0,0.09386 0.02187,0.19137 0.05854,0.27978c0.0252,0.01557 0.04468,0.02997 0.05845,0.04375l0.35355,0.35355c0.06138,0.06138 0.00926,0.11014 -0.15636,0.19295c-0.21751,0.09667 -0.31418,0.67669 -0.31418,1.69174c0,1.20839 -0.07251,1.54673 -0.36252,1.54673c-0.06758,0 -0.12335,-0.01969 -0.16976,-0.06609l-0.35355,-0.35355c-0.15273,-0.15273 -0.20403,-0.59491 -0.2411,-1.57731c-0.02418,-1.81258 0,-2.44094 0.16918,-2.90013c0.04833,-0.145 0.36252,-0.29001 0.65253,-0.26585l0.00002,0.00002c0.17864,0 0.28696,0.02344 0.32051,0.057l0.35355,0.35355c0.02546,0.02546 0.00788,0.05673 -0.05468,0.08801zM32.51917,23.41772c0.02364,0.62652 0.05307,1.03332 0.1109,1.28546c0.24549,-0.04303 0.30892,-0.41214 0.30892,-1.54234c0,-1.01505 0.09667,-1.59507 0.31418,-1.69174c0.07751,-0.03875 0.13017,-0.07005 0.15796,-0.09867l-0.27141,-0.27141c-0.11575,-0.11575 -0.20073,-0.31493 -0.20073,-0.49995c0,-0.10527 0.02752,-0.21514 0.07256,-0.30961c-0.16329,0.04984 -0.29348,0.13899 -0.3232,0.22813c-0.16918,0.45919 -0.19336,1.08754 -0.16918,2.90013zM17.45411,24.95464l-0.35355,-0.35355c-0.13935,-0.13935 -0.26501,-0.46711 -0.30557,-0.8119c-0.01694,-0.14818 -0.0398,-0.27486 -0.06796,-0.37963c-0.0987,0.0428 -0.20933,0.16551 -0.32769,0.37067c-0.16918,0.31418 -0.12085,0.55586 0.16918,0.8942c0.38668,0.41085 0.38668,0.43501 -0.19334,0.36252c-0.23305,-0.0368 -0.40696,-0.12028 -0.52213,-0.23545l-0.35355,-0.35355c-0.33867,-0.33867 -0.16934,-0.95132 0.49795,-1.45629c0.53804,-0.39919 0.80187,-0.87317 0.73777,-1.21605c-0.10788,0.01124 -0.21093,0.10052 -0.26337,0.24039c-0.07251,0.21751 -0.31418,0.38668 -0.48335,0.38668c-0.10408,0 -0.17081,-0.01245 -0.20465,-0.04629l-0.35355,-0.35355c-0.06045,-0.06045 -0.01597,-0.18916 0.10798,-0.43706c0.30111,-0.5592 1.13817,-0.62074 1.55724,-0.20167l0.35355,0.35355c0.05182,0.05182 0.09726,0.111 0.13449,0.17749l-0.00002,0.00002c0.36252,0.70086 0.31418,3.23847 -0.04833,3.11763c-0.0272,-0.01166 -0.05441,-0.03144 -0.08111,-0.05815zM16.53545,21.46548c0.02439,0.01757 0.04659,0.03643 0.06664,0.05648l0.35355,0.35355c0.27951,0.27951 0.13979,0.79001 -0.34659,1.25335l0.32162,0.32162c0.10121,0.10121 0.1769,0.3338 0.21786,0.69226c0.02071,0.17604 0.0636,0.34763 0.11917,0.49198c0.27844,-0.27199 0.29349,-2.40146 -0.02621,-3.06998c-0.21081,-0.1126 -0.46724,-0.14606 -0.70606,-0.09927zM15.86704,21.96953c0.10931,-0.07001 0.20901,-0.18034 0.25126,-0.30709c0.00195,-0.0052 0.00397,-0.01032 0.00605,-0.01538c-0.09339,0.0716 -0.17331,0.16231 -0.23252,0.27226c-0.00866,0.01731 -0.01692,0.03404 -0.02479,0.0502zM16.02163,24.68339c0.58002,0.07249 0.58002,0.04833 0.19334,-0.36252c-0.19051,-0.22225 -0.27673,-0.40279 -0.26553,-0.58956c-0.24322,0.30829 -0.32018,0.6212 -0.22894,0.86563c0.08609,0.03893 0.18644,0.06834 0.30112,0.08645zM19.05778,21.75016c-0.02418,0.09667 -0.02418,0.87004 -0.02418,1.74007c0,0.8942 -0.09667,1.57089 -0.24167,1.57089c-0.01311,0 -0.02582,-0.00632 -0.0381,-0.0186l-0.35355,-0.35355c-0.12359,-0.12359 -0.20357,-0.85088 -0.20357,-1.81814c0,-1.18421 0.09667,-1.78841 0.26585,-1.74007c0.06357,0.02119 0.11786,0.05632 0.15878,0.09724l0.35355,0.35355c0.05241,0.05241 0.0829,0.11432 0.0829,0.16861zM18.59638,24.36018c0.05288,-0.28356 0.08366,-0.7189 0.08366,-1.2235c0,-0.64317 0,-1.23351 0.00977,-1.5367c-0.09009,0.22696 -0.13956,0.77728 -0.13956,1.62441c0,0.43952 0.01651,0.8295 0.04613,1.1358zM20.67702,23.29689c0.04833,1.11172 -0.02418,1.76425 -0.19334,1.76425c-0.0166,0 -0.03258,-0.00792 -0.04784,-0.02319c0,0 0,0 0,0l-0.35355,-0.35355c-0.11804,-0.11804 -0.19384,-0.6751 -0.19384,-1.4027c0,-1.01505 -0.12085,-1.54673 -0.41085,-1.83674c-0.36252,-0.38668 -0.36252,-0.41085 0.19334,-0.31418v-0.00002c0.18785,0.0245 0.31498,0.05177 0.40377,0.14056l0.35355,0.35355c0.17394,0.17394 0.20075,0.58401 0.24876,1.67202zM20.02449,21.48432c-0.55586,-0.09667 -0.55586,-0.07249 -0.19334,0.31418c0.29001,0.29001 0.41085,0.82169 0.41085,1.83674c0,0.30394 0.01323,0.57813 0.03723,0.80298c0.05761,-0.28967 0.07429,-0.80347 0.04423,-1.49489c-0.03317,-0.75184 -0.05623,-1.17996 -0.1247,-1.43013c-0.05143,-0.01159 -0.10921,-0.02041 -0.17428,-0.0289zM22.12707,23.32105c0.04833,1.08754 -0.02418,1.74007 -0.19334,1.74007c-0.01594,0 -0.0313,-0.0076 -0.04601,-0.02231l-0.35355,-0.35355c-0.11908,-0.11908 -0.19566,-0.70436 -0.19566,-1.50025c0,-0.8687 -0.11405,-1.60054 -0.27565,-1.81885l-0.08241,-0.08241c-0.18535,-0.18535 -0.11222,-0.21851 0.23723,-0.153h-0.00002c0.11542,0.02037 0.20414,0.05219 0.27366,0.1217l0.35355,0.35355c0.17793,0.17793 0.23006,0.60284 0.2822,1.71504zM21.28453,21.58431l0.11751,0.11751c0.16916,0.19334 0.29001,0.94254 0.29001,1.83674c0,0.34177 0.01412,0.6447 0.03967,0.88856c0.05564,-0.28961 0.07143,-0.79286 0.04179,-1.45963c-0.03634,-0.77521 -0.07268,-1.21653 -0.15161,-1.47304c-0.0163,-0.00371 -0.03319,-0.00706 -0.05069,-0.01015l0,0c-0.31306,-0.05869 -0.40434,-0.03818 -0.28667,0.10001zM28.67652,21.4843l0,0c0.10604,0.0101 0.19625,0.02547 0.27306,0.04921c0.03755,0.11386 0.06006,0.25871 0.07425,0.44311c0.04862,0.50237 0.04291,0.68961 -0.17744,0.75846c-0.08073,0.0978 -0.21127,0.15095 -0.38739,0.15095c-0.11878,0 -0.21946,-0.04221 -0.29828,-0.10993c-0.5227,0.01385 -0.55573,0.11688 -0.49027,0.77141c0.03976,0.36775 0.15717,0.63739 0.2951,0.77532l0.26276,0.26276c-0.03902,0.00079 -0.07993,0.00115 -0.12284,0.00115h-0.5106l-0.05422,-1.04817c-0.03344,-0.60199 0.00253,-1.11142 0.08392,-1.44023c-0.04803,-0.23899 0.04099,-0.50662 0.31171,-0.60506c0.18123,-0.06041 0.32471,-0.0621 0.43044,-0.00506c0.10421,-0.0156 0.21015,-0.01814 0.30981,-0.00391zM29.02913,23.99004c-0.00154,0.01334 -0.0033,0.02695 -0.00529,0.04084c-0.02229,0.21176 -0.07028,0.34642 -0.18426,0.43006c0.01087,-0.03114 0.021,-0.06468 0.03029,-0.10068c0.04117,-0.16468 0.09809,-0.28786 0.15926,-0.37022zM30.81222,21.37243c0.25674,-0.25674 0.51348,-0.34649 0.62239,-0.23758l0.35355,0.35355c0.03462,0.03462 0.0543,0.0893 0.0543,0.16507c0,0.12085 -0.21751,0.26585 -0.48335,0.33834c-0.41085,0.09667 -0.48335,0.33834 -0.48335,1.59507c0,0.82169 -0.09667,1.47422 -0.24167,1.47422c-0.01313,0 -0.02586,-0.00634 -0.03816,-0.01864l-0.35355,-0.35355c-0.12356,-0.12356 -0.20352,-0.8488 -0.20352,-1.79395c0,-1.03921 0.09667,-1.81258 0.24167,-1.81258l0.00003,0.00003c0.06416,0.00001 0.11885,0.02367 0.1599,0.06472l0.29675,0.29675c0.02282,-0.02041 0.04778,-0.04423 0.075,-0.07146zM30.43926,24.37228c0.05245,-0.26914 0.08295,-0.67735 0.08295,-1.13895c0,-0.96509 0.04275,-1.33157 0.24866,-1.49347l-0.21687,-0.21687c-0.09941,0.22969 -0.16159,0.89213 -0.16159,1.72553c0,0.43297 0.01678,0.81979 0.04684,1.12376zM34.88761,22.9102c0.02807,0.14547 0.05453,0.2745 0.0798,0.38675c0.08087,-0.23092 0.17286,-0.66685 0.29167,-1.32033c0.07251,-0.48335 0.24167,-0.8942 0.36252,-0.8942c0.05362,0 0.09649,0.01156 0.12772,0.04279l0.35355,0.35355c0.13766,0.13766 0.04877,0.65747 -0.34523,2.25314c-0.48335,1.98175 -0.65253,2.29593 -1.20839,2.29593c-0.01664,-0.00104 -0.03256,-0.00204 -0.04776,-0.00301c0.10011,0.04536 0.19002,0.10774 0.26993,0.18765l0.35355,0.35355c0.26273,0.26273 0.41741,0.71501 0.47162,1.37531c-0.02331,-0.78609 -0.02331,-1.49486 -0.02331,-1.59036c0.04339,-0.3037 0.84616,0.05463 1.41211,0.62057l0.35355,0.35355c0.06456,0.06456 0.12604,0.13183 0.18296,0.20112h-0.00002c0.53168,0.62835 0.60419,0.94254 0.60419,2.63428c0,0.83963 -0.08682,1.8405 -0.2331,2.83503c0.13895,-0.87224 0.24181,-1.79823 0.2904,-2.70522c0.09921,-1.44833 0.16583,-1.96827 0.2801,-1.85399c0,0 0,0 0,0l0.35355,0.35355c0.02493,0.02493 0.05212,0.08003 0.08242,0.16226h-0.00002c0.09867,0.25425 0.14489,0.6402 0.14842,1.11292c0.03763,-0.17736 0.07367,-0.28228 0.10222,-0.28228l0.00002,0.00002c0.00713,0.00001 0.01636,0.00579 0.0273,0.01673c0,0 0,0 0,0l0.35355,0.35355c0.06328,0.06328 0.18385,0.29903 0.28687,0.58746c0.43501,1.13588 -0.77336,6.42861 -1.35339,5.84857l-0.35355,-0.35355c-0.02699,-0.02699 -0.00877,-0.28754 0.04624,-0.67229c-0.38441,1.34282 -0.83722,2.41568 -1.23942,2.66925c-0.11571,0.06943 -0.1871,0.09453 -0.21417,0.06746l-0.35355,-0.35355c-0.02445,-0.02445 -0.01275,-0.09144 0.03508,-0.20677c-0.47456,0.54932 -1.09254,0.85536 -1.76327,0.85536h-0.77336l-0.35355,-0.35355l0.07967,-0.16354c-0.48597,0.57722 -1.05952,0.52615 -1.80457,0.00958c-0.42948,-0.30779 -0.73175,-0.52442 -0.9401,-0.73277l-0.35355,-0.35355c-0.49512,-0.49512 -0.45985,-0.94349 -0.34078,-2.45736c0.09667,-1.08754 0.26585,-2.41676 0.38668,-2.94846c0.12085,-0.53168 0.33834,-1.66756 0.50752,-2.53761c0.31418,-1.74007 0.70086,-2.32009 1.78841,-2.80346c0.57546,-0.2537 1.0432,-0.36164 1.40969,-0.30801l-0.31441,-0.31441c-0.03674,-0.03674 0.05735,-0.11318 0.28227,-0.29593c0.38668,-0.26585 0.38668,-0.43501 0.04833,-1.86092c-0.19334,-0.84587 -0.41085,-1.74007 -0.48335,-2.00592c-0.09667,-0.31418 -0.04833,-0.41085 0.16918,-0.33834c0.02506,0.0094 0.05134,0.02814 0.07841,0.05521l0.35355,0.35355c0.18181,0.18181 0.39957,0.73963 0.52578,1.37068zM35.74932,21.12521c0,0 0,0 0,0c0,0 0,0 0,0zM38.7061,34.82485c-0.09206,0.43729 -0.1622,0.84719 -0.20521,1.16185c0.59547,-1.06047 1.31437,-4.68322 0.96338,-5.59973c-0.01113,-0.03117 -0.02247,-0.06172 -0.03392,-0.09151c-0.06553,0.24744 -0.14118,0.75693 -0.19256,1.33925c-0.09667,0.84587 -0.33834,2.27176 -0.53168,3.19014zM38.53694,30.64386c-0.0527,0.98369 -0.16923,1.98973 -0.32641,2.92531c0.354,-1.65625 0.56283,-3.38666 0.45598,-4.40438c-0.04161,0.29974 -0.08182,0.78183 -0.12957,1.47907zM37.16835,27.17267c-0.00584,-0.00711 -0.01173,-0.0142 -0.01767,-0.02127c-0.54053,-0.46124 -1.18509,-0.71812 -1.22385,-0.44687c0,0.09667 0,0.82169 0.02418,1.61923c0.02416,1.93341 -1.06338,8.1445 -1.6434,9.32872l-0.28694,0.58899h0.24756c1.01503,0 1.90924,-0.70086 2.36843,-1.88508c0.62835,-1.54673 1.13588,-4.51935 1.13588,-6.54944c0,-1.69174 -0.07251,-2.00592 -0.60419,-2.63428zM35.01741,30.89449c0.34767,-2.34352 0.33858,-3.78831 -0.08574,-4.47692c-0.40024,-0.22938 -0.98154,-0.1529 -1.75997,0.19028c-1.08754,0.48336 -1.47422,1.06338 -1.78841,2.80346c-0.16918,0.87004 -0.38668,2.00592 -0.50752,2.53761c-0.12083,0.5317 -0.29001,1.86092 -0.38668,2.94846c-0.10543,1.34048 -0.14516,1.84556 0.19086,2.28741c0.18891,0.15676 0.43039,0.32981 0.73647,0.54917c1.81258,1.25672 2.61012,-0.24167 3.60099,-6.83945zM34.59759,23.82857c0.17929,0.7556 0.26358,1.1583 0.24566,1.4095c0.16633,-0.33124 0.32674,-0.89989 0.56084,-1.85972c0.19822,-0.80276 0.31921,-1.33323 0.37299,-1.67973c-0.06697,0.1634 -0.12795,0.3883 -0.16444,0.63155c-0.20899,1.14947 -0.33499,1.6258 -0.46345,1.49735l-0.35355,-0.35355c-0.0795,-0.0795 -0.15994,-0.39068 -0.26158,-0.91733c-0.08623,-0.43116 -0.2152,-0.82812 -0.34624,-1.09434c-0.13408,-0.01178 -0.15398,0.09907 -0.07358,0.36035c0.07249,0.26585 0.29001,1.16005 0.48335,2.00592zM12.29083,38.2325l-0.60419,-0.58002c-0.01861,-0.01741 -0.03705,-0.03524 -0.05531,-0.05351c0,0 0,0 0,0l-0.35355,-0.35355c-0.62521,-0.62521 -1.04666,-1.75482 -1.47259,-3.89458c0.17577,1.01525 0.33662,1.88595 0.40723,2.15071c0.12085,0.43501 0.07251,0.67669 -0.09667,0.67669c-0.09337,0 -0.18006,-0.03785 -0.26222,-0.12001l-0.35355,-0.35355c-0.30063,-0.30063 -0.54062,-1.19447 -0.82533,-2.99761c-0.29001,-1.66756 -0.29001,-2.3926 -0.09667,-2.87595c0.08792,-0.21101 0.15345,-0.31647 0.2187,-0.25122l0.35355,0.35355c0.06479,0.06479 0.12931,0.29792 0.21519,0.76317c-0.15258,-1.2425 -0.11756,-1.93685 0.05842,-2.60557c0.03422,-0.11633 0.06843,-0.15904 0.1021,-0.12537l0.35355,0.35355c0.08523,0.08523 0.16695,0.65998 0.23625,1.76876l0,0c0.21751,2.92429 0.84587,5.70357 1.57089,7.05696zM8.96572,30.10568c-0.01103,0.02433 -0.02241,0.05071 -0.03419,0.07899c-0.19334,0.48335 -0.19334,1.20839 0.09667,2.87595c0.22978,1.45525 0.43043,2.31822 0.65733,2.75509c0.02506,0.00604 0.0506,0.00898 0.07666,0.00898c0.16918,0 0.21751,-0.24167 0.09667,-0.67669c-0.09667,-0.3625 -0.36252,-1.8609 -0.60419,-3.31097c-0.1242,-0.81146 -0.21436,-1.37044 -0.28894,-1.73136zM9.76218,29.73446c-0.02213,-0.35402 -0.04552,-0.65359 -0.06988,-0.90017c-0.14238,0.82474 -0.07527,1.82484 0.27843,3.86383c0.46696,2.64615 0.89301,4.0238 1.54169,4.77298l0.42485,0.40785l-0.60419,-1.08754c-0.72502,-1.35339 -1.35338,-4.13267 -1.57089,-7.05696z" fill="url(#color-1)" stroke-width="1"></path><path d="M27.38042,10.08612c2.27176,0.53169 5.87275,2.3926 6.83945,3.52848c1.20838,1.40173 2.05425,3.09346 2.61011,5.22022c0.50752,1.95758 0.8942,6.71861 0.60419,7.46781c-0.14501,0.38668 -0.16917,0.38668 -0.50752,-0.04834c-0.21751,-0.31418 -0.33835,-1.08755 -0.36252,-2.29593c0,-2.73095 -0.38668,-4.47102 -1.52256,-6.79112l-1.01504,-2.12676l-2.51344,-0.99087c-5.12355,-2.00592 -7.95117,-2.12676 -13.63057,-0.58002l-3.33514,0.91837l-0.8217,1.35339c-0.45919,0.7492 -0.94254,1.47423 -1.06338,1.6434c-0.62836,0.72503 -1.28089,3.43181 -1.40173,5.92108c-0.09667,1.76424 -0.24168,2.70678 -0.45919,2.87595c-0.29001,0.24168 -0.33835,-0.12084 -0.33835,-2.03008c0,-3.77016 0.96671,-7.29864 2.70678,-9.88458c0.65253,-0.99087 1.16005,-1.37756 2.85179,-2.22343c1.95758,-0.99087 4.49519,-1.93341 5.80024,-2.15092c1.40173,-0.24168 4.08434,-0.14501 5.55857,0.19334zM12.15478,19.63236h0.8217c0.45919,0 1.01504,0.16917 1.20838,0.38668c0.48335,0.45919 0.50752,1.40173 0.04834,1.86091c-0.31418,0.31418 -0.31418,0.50752 0,1.4984c0.33835,1.13588 0.29001,1.6434 -0.09667,1.18422c-0.12084,-0.12084 -0.33835,-0.67669 -0.50752,-1.25672c-0.41085,-1.47423 -0.99087,-1.37756 -0.99087,0.19334c0,0.65253 -0.09667,1.20838 -0.24168,1.20838c-0.14501,0 -0.24168,-1.01504 -0.24168,-2.53761zM12.63814,20.84074c0,0.87004 0.0725,0.96671 0.60419,0.96671c0.33835,0 0.60419,-0.09667 0.60419,-0.21751c0,-0.12084 0.0725,-0.38668 0.14501,-0.58002c0.0725,-0.19334 -0.04834,-0.53169 -0.26584,-0.7492c-0.70086,-0.67669 -1.08755,-0.48335 -1.08755,0.58002zM23.03024,19.63236c0.14501,0 0.24168,0.36252 0.24168,0.79753c0,0.70086 0.0725,0.79753 0.67669,0.77337c0.58002,0 0.67669,0.09667 0.84587,1.08755c0.14501,0.67669 0.12084,1.32922 -0.04834,1.74007c-0.21751,0.55586 -0.38668,0.65253 -1.11171,0.62836l-0.84587,-0.02417v-2.51344c0,-1.4984 0.09667,-2.48927 0.24168,-2.48927zM23.75527,21.56577c-0.45919,0 -0.50752,0.12084 -0.43502,1.37756c0.04834,1.06338 0.16917,1.40173 0.43502,1.40173c0.26584,0 0.38668,-0.33835 0.43502,-1.40173c0.0725,-1.25672 0.02417,-1.37756 -0.43502,-1.37756zM25.93036,19.63236c0.14501,0 0.24168,1.01504 0.24168,2.53761c0,1.52256 -0.09667,2.53761 -0.24168,2.53761c-0.14501,0 -0.24168,-1.01504 -0.24168,-2.53761c0,-1.52256 0.09667,-2.53761 0.24168,-2.53761zM32.98732,19.8982c0.31418,0 0.41085,0.0725 0.26584,0.14501c-0.16917,0.04834 -0.31418,0.31418 -0.31418,0.55586c0,0.24168 0.14501,0.50752 0.31418,0.58002c0.24168,0.12084 0.24168,0.16917 0,0.29001c-0.21751,0.09667 -0.31418,0.67669 -0.31418,1.69174c0,1.20838 -0.0725,1.54673 -0.36252,1.54673c-0.29001,0 -0.36252,-0.36252 -0.41085,-1.6434c-0.02417,-1.81258 0,-2.44094 0.16917,-2.90012c0.04834,-0.14501 0.36252,-0.29001 0.65253,-0.26584zM17.22999,21.5416c0.36252,0.70086 0.31418,3.23847 -0.04834,3.11763c-0.16917,-0.0725 -0.33835,-0.45919 -0.38668,-0.87004c-0.09667,-0.84587 -0.38668,-0.99087 -0.7492,-0.36252c-0.16917,0.31418 -0.12084,0.55586 0.16917,0.8942c0.38668,0.41085 0.38668,0.43502 -0.19334,0.36252c-0.91837,-0.14501 -0.91837,-1.01504 -0.02417,-1.69174c0.7492,-0.55586 0.96671,-1.25672 0.50752,-1.54673c-0.14501,-0.0725 -0.31418,0.02417 -0.38668,0.21751c-0.0725,0.21751 -0.31418,0.38668 -0.48335,0.38668c-0.29001,0 -0.29001,-0.09667 -0.09667,-0.48335c0.33835,-0.62836 1.35339,-0.62836 1.69174,-0.02417zM18.46255,21.13075c0.14501,0.04834 0.24168,0.16917 0.24168,0.26584c-0.02417,0.09667 -0.02417,0.87004 -0.02417,1.74007c0,0.8942 -0.09667,1.5709 -0.24168,1.5709c-0.14501,0 -0.24168,-0.77337 -0.24168,-1.83674c0,-1.18422 0.09667,-1.78841 0.26584,-1.74007zM19.67093,21.13075c0.55586,0.0725 0.58002,0.16917 0.65253,1.81258c0.04834,1.11171 -0.02417,1.76424 -0.19334,1.76424c-0.14501,0 -0.24168,-0.60419 -0.24168,-1.42589c0,-1.01504 -0.12084,-1.54673 -0.41085,-1.83674c-0.36252,-0.38668 -0.36252,-0.41085 0.19334,-0.31418zM21.21766,21.13075c0.41085,0.0725 0.48335,0.29001 0.55586,1.83674c0.04834,1.08755 -0.02417,1.74007 -0.19334,1.74007c-0.14501,0 -0.24168,-0.62836 -0.24168,-1.52256c0,-0.8942 -0.12084,-1.6434 -0.29001,-1.83674c-0.26584,-0.24168 -0.21751,-0.29001 0.16917,-0.21751zM28.32296,21.13075c0.50752,0.04834 0.65253,0.21751 0.70086,0.84587c0.0725,0.7492 0.02417,0.79753 -0.67669,0.79753c-0.70086,0 -0.7492,0.04834 -0.67669,0.77337c0.09667,0.8942 0.65253,1.20838 0.84587,0.45919c0.16917,-0.67669 0.60419,-0.65253 0.50752,0.02417c-0.04834,0.45919 -0.21751,0.55586 -0.91837,0.55586h-0.84587l-0.0725,-1.40173c-0.04834,-0.87004 0.04834,-1.54673 0.21751,-1.76424c0.16917,-0.19334 0.58002,-0.33835 0.91837,-0.29001zM27.93628,21.49327c-0.53169,0.19334 -0.36252,1.03921 0.16917,1.03921c0.31418,0 0.48335,-0.16917 0.48335,-0.45919c0,-0.53169 -0.21751,-0.72503 -0.65253,-0.58002zM30.28054,21.08242c0.14501,0 0.24168,0.12084 0.24168,0.29001c0,0.21751 0.0725,0.21751 0.29001,0c0.33835,-0.33835 0.67669,-0.38668 0.67669,-0.0725c0,0.12084 -0.21751,0.26584 -0.48335,0.33835c-0.41085,0.09667 -0.48335,0.33835 -0.48335,1.59507c0,0.8217 -0.09667,1.47423 -0.24168,1.47423c-0.14501,0 -0.24168,-0.77337 -0.24168,-1.81258c0,-1.03921 0.09667,-1.81258 0.24168,-1.81258zM33.92986,21.13075c0.19334,0.0725 0.45919,0.70086 0.60419,1.42589c0.26584,1.37756 0.38668,1.28089 0.72503,-0.58002c0.0725,-0.48335 0.24168,-0.8942 0.36252,-0.8942c0.29001,0 0.26584,0.33835 -0.21751,2.29593c-0.48335,1.98175 -0.65253,2.29593 -1.20838,2.29593c-0.38668,-0.02417 -0.38668,-0.02417 0,-0.33835c0.38668,-0.26584 0.38668,-0.43502 0.04834,-1.86091c-0.19334,-0.84587 -0.41085,-1.74007 -0.48335,-2.00592c-0.09667,-0.31418 -0.04834,-0.41085 0.16917,-0.33835zM15.70743,26.10929c0.7492,0.70086 1.52256,2.97262 1.52256,4.49519c0,0.36252 0.09667,0.84587 0.21751,1.06338c0.33835,0.62836 0.48335,3.60098 0.24168,4.49519c-0.16917,0.60419 -0.45919,0.8942 -1.20838,1.23255c-1.78841,0.8217 -2.36843,-0.16917 -3.26264,-5.51023c-0.62836,-3.69765 -0.65253,-5.41356 -0.09667,-6.09025c0.50752,-0.60419 1.74007,-0.43502 2.58594,0.31418zM12.10645,25.91595c0.36252,0 0.41085,0.21751 0.33835,1.61923c-0.12084,2.68261 1.08755,8.89371 1.90925,9.90875c0.29001,0.33835 0.12084,0.41085 -0.99087,0.33835c-1.47423,-0.09667 -2.77928,-3.02096 -3.11763,-6.91196c-0.21751,-2.48927 0,-3.69765 0.8217,-4.39852c0.33835,-0.31418 0.8217,-0.55586 1.03921,-0.55586zM35.01741,30.89449c-0.99087,6.59778 -1.78841,8.09617 -3.60098,6.83945c-1.45006,-1.03921 -1.45006,-1.03921 -1.28089,-3.19013c0.09667,-1.08755 0.26584,-2.41677 0.38668,-2.94846c0.12084,-0.53169 0.33835,-1.66757 0.50752,-2.53761c0.31418,-1.74007 0.70086,-2.3201 1.78841,-2.80345c2.24759,-0.99087 2.85179,0.24168 2.19926,4.64019zM37.16833,27.17267c0.53169,0.62836 0.60419,0.94254 0.60419,2.63428c0,2.03008 -0.50752,5.00271 -1.13588,6.54944c-0.45919,1.18422 -1.35339,1.88508 -2.36843,1.88508h-0.77337l0.45919,-0.94254c0.58002,-1.18422 1.66757,-7.39531 1.6434,-9.32872c-0.02417,-0.79753 -0.02417,-1.52256 -0.02417,-1.61923c0.04834,-0.33835 1.03921,0.14501 1.59507,0.8217zM9.76218,29.73445c0.21751,2.92429 0.84587,5.70357 1.5709,7.05696l0.60419,1.08755l-0.60419,-0.58002c-0.7492,-0.70086 -1.20838,-2.07842 -1.71591,-4.95437c-0.41085,-2.36843 -0.43502,-3.33514 -0.19334,-4.25351c0.12084,-0.41085 0.24168,0.09667 0.33835,1.6434zM38.54589,28.59856c0.62836,1.61923 -0.87004,8.57953 -1.98175,9.28039c-0.36252,0.21751 -0.29001,0 0.21751,-0.8942c0.62836,-1.11171 1.25672,-3.98767 1.40173,-6.69445c0.12084,-1.76424 0.19334,-2.15092 0.36252,-1.69174zM9.25466,31.83703c0.24168,1.45006 0.50752,2.94846 0.60419,3.31097c0.12084,0.43502 0.0725,0.67669 -0.09667,0.67669c-0.43502,0 -0.72503,-0.8217 -1.08755,-3.11763c-0.29001,-1.66757 -0.29001,-2.3926 -0.09667,-2.87595c0.24168,-0.58002 0.31418,-0.36252 0.67669,2.00592zM39.15008,29.78278c0.04834,0 0.19334,0.26584 0.31418,0.60419c0.43502,1.13588 -0.77337,6.4286 -1.35339,5.84858c-0.04834,-0.04834 0.04834,-0.84587 0.24168,-1.76424c0.19334,-0.91837 0.43502,-2.34426 0.53169,-3.19013c0.0725,-0.8217 0.19334,-1.4984 0.26584,-1.4984z" fill="none" stroke-width="0"></path><path d="M27.38042,10.08612c2.27176,0.53169 5.87275,2.3926 6.83945,3.52848c1.20838,1.40173 2.05425,3.09346 2.61011,5.22022c0.50752,1.95758 0.8942,6.71861 0.60419,7.46781c-0.14501,0.38668 -0.16917,0.38668 -0.50752,-0.04834c-0.21751,-0.31418 -0.33835,-1.08755 -0.36252,-2.29593c0,-2.73095 -0.38668,-4.47102 -1.52256,-6.79112l-1.01504,-2.12676l-2.51344,-0.99087c-5.12355,-2.00592 -7.95117,-2.12676 -13.63057,-0.58002l-3.33514,0.91837l-0.8217,1.35339c-0.45919,0.7492 -0.94254,1.47423 -1.06338,1.6434c-0.62836,0.72503 -1.28089,3.43181 -1.40173,5.92108c-0.09667,1.76424 -0.24168,2.70678 -0.45919,2.87595c-0.29001,0.24168 -0.33835,-0.12084 -0.33835,-2.03008c0,-3.77016 0.96671,-7.29864 2.70678,-9.88458c0.65253,-0.99087 1.16005,-1.37756 2.85179,-2.22343c1.95758,-0.99087 4.49519,-1.93341 5.80024,-2.15092c1.40173,-0.24168 4.08434,-0.14501 5.55857,0.19334zM12.15478,19.63236h0.8217c0.45919,0 1.01504,0.16917 1.20838,0.38668c0.48335,0.45919 0.50752,1.40173 0.04834,1.86091c-0.31418,0.31418 -0.31418,0.50752 0,1.4984c0.33835,1.13588 0.29001,1.6434 -0.09667,1.18422c-0.12084,-0.12084 -0.33835,-0.67669 -0.50752,-1.25672c-0.41085,-1.47423 -0.99087,-1.37756 -0.99087,0.19334c0,0.65253 -0.09667,1.20838 -0.24168,1.20838c-0.14501,0 -0.24168,-1.01504 -0.24168,-2.53761zM12.63814,20.84074c0,0.87004 0.0725,0.96671 0.60419,0.96671c0.33835,0 0.60419,-0.09667 0.60419,-0.21751c0,-0.12084 0.0725,-0.38668 0.14501,-0.58002c0.0725,-0.19334 -0.04834,-0.53169 -0.26584,-0.7492c-0.70086,-0.67669 -1.08755,-0.48335 -1.08755,0.58002zM23.03024,19.63236c0.14501,0 0.24168,0.36252 0.24168,0.79753c0,0.70086 0.0725,0.79753 0.67669,0.77337c0.58002,0 0.67669,0.09667 0.84587,1.08755c0.14501,0.67669 0.12084,1.32922 -0.04834,1.74007c-0.21751,0.55586 -0.38668,0.65253 -1.11171,0.62836l-0.84587,-0.02417v-2.51344c0,-1.4984 0.09667,-2.48927 0.24168,-2.48927zM23.75527,21.56577c-0.45919,0 -0.50752,0.12084 -0.43502,1.37756c0.04834,1.06338 0.16917,1.40173 0.43502,1.40173c0.26584,0 0.38668,-0.33835 0.43502,-1.40173c0.0725,-1.25672 0.02417,-1.37756 -0.43502,-1.37756zM25.93036,19.63236c0.14501,0 0.24168,1.01504 0.24168,2.53761c0,1.52256 -0.09667,2.53761 -0.24168,2.53761c-0.14501,0 -0.24168,-1.01504 -0.24168,-2.53761c0,-1.52256 0.09667,-2.53761 0.24168,-2.53761zM32.98732,19.8982c0.31418,0 0.41085,0.0725 0.26584,0.14501c-0.16917,0.04834 -0.31418,0.31418 -0.31418,0.55586c0,0.24168 0.14501,0.50752 0.31418,0.58002c0.24168,0.12084 0.24168,0.16917 0,0.29001c-0.21751,0.09667 -0.31418,0.67669 -0.31418,1.69174c0,1.20838 -0.0725,1.54673 -0.36252,1.54673c-0.29001,0 -0.36252,-0.36252 -0.41085,-1.6434c-0.02417,-1.81258 0,-2.44094 0.16917,-2.90012c0.04834,-0.14501 0.36252,-0.29001 0.65253,-0.26584zM17.22999,21.5416c0.36252,0.70086 0.31418,3.23847 -0.04834,3.11763c-0.16917,-0.0725 -0.33835,-0.45919 -0.38668,-0.87004c-0.09667,-0.84587 -0.38668,-0.99087 -0.7492,-0.36252c-0.16917,0.31418 -0.12084,0.55586 0.16917,0.8942c0.38668,0.41085 0.38668,0.43502 -0.19334,0.36252c-0.91837,-0.14501 -0.91837,-1.01504 -0.02417,-1.69174c0.7492,-0.55586 0.96671,-1.25672 0.50752,-1.54673c-0.14501,-0.0725 -0.31418,0.02417 -0.38668,0.21751c-0.0725,0.21751 -0.31418,0.38668 -0.48335,0.38668c-0.29001,0 -0.29001,-0.09667 -0.09667,-0.48335c0.33835,-0.62836 1.35339,-0.62836 1.69174,-0.02417zM18.46255,21.13075c0.14501,0.04834 0.24168,0.16917 0.24168,0.26584c-0.02417,0.09667 -0.02417,0.87004 -0.02417,1.74007c0,0.8942 -0.09667,1.5709 -0.24168,1.5709c-0.14501,0 -0.24168,-0.77337 -0.24168,-1.83674c0,-1.18422 0.09667,-1.78841 0.26584,-1.74007zM19.67093,21.13075c0.55586,0.0725 0.58002,0.16917 0.65253,1.81258c0.04834,1.11171 -0.02417,1.76424 -0.19334,1.76424c-0.14501,0 -0.24168,-0.60419 -0.24168,-1.42589c0,-1.01504 -0.12084,-1.54673 -0.41085,-1.83674c-0.36252,-0.38668 -0.36252,-0.41085 0.19334,-0.31418zM21.21766,21.13075c0.41085,0.0725 0.48335,0.29001 0.55586,1.83674c0.04834,1.08755 -0.02417,1.74007 -0.19334,1.74007c-0.14501,0 -0.24168,-0.62836 -0.24168,-1.52256c0,-0.8942 -0.12084,-1.6434 -0.29001,-1.83674c-0.26584,-0.24168 -0.21751,-0.29001 0.16917,-0.21751zM28.32296,21.13075c0.50752,0.04834 0.65253,0.21751 0.70086,0.84587c0.0725,0.7492 0.02417,0.79753 -0.67669,0.79753c-0.70086,0 -0.7492,0.04834 -0.67669,0.77337c0.09667,0.8942 0.65253,1.20838 0.84587,0.45919c0.16917,-0.67669 0.60419,-0.65253 0.50752,0.02417c-0.04834,0.45919 -0.21751,0.55586 -0.91837,0.55586h-0.84587l-0.0725,-1.40173c-0.04834,-0.87004 0.04834,-1.54673 0.21751,-1.76424c0.16917,-0.19334 0.58002,-0.33835 0.91837,-0.29001zM27.93628,21.49327c-0.53169,0.19334 -0.36252,1.03921 0.16917,1.03921c0.31418,0 0.48335,-0.16917 0.48335,-0.45919c0,-0.53169 -0.21751,-0.72503 -0.65253,-0.58002zM30.28054,21.08242c0.14501,0 0.24168,0.12084 0.24168,0.29001c0,0.21751 0.0725,0.21751 0.29001,0c0.33835,-0.33835 0.67669,-0.38668 0.67669,-0.0725c0,0.12084 -0.21751,0.26584 -0.48335,0.33835c-0.41085,0.09667 -0.48335,0.33835 -0.48335,1.59507c0,0.8217 -0.09667,1.47423 -0.24168,1.47423c-0.14501,0 -0.24168,-0.77337 -0.24168,-1.81258c0,-1.03921 0.09667,-1.81258 0.24168,-1.81258zM33.92986,21.13075c0.19334,0.0725 0.45919,0.70086 0.60419,1.42589c0.26584,1.37756 0.38668,1.28089 0.72503,-0.58002c0.0725,-0.48335 0.24168,-0.8942 0.36252,-0.8942c0.29001,0 0.26584,0.33835 -0.21751,2.29593c-0.48335,1.98175 -0.65253,2.29593 -1.20838,2.29593c-0.38668,-0.02417 -0.38668,-0.02417 0,-0.33835c0.38668,-0.26584 0.38668,-0.43502 0.04834,-1.86091c-0.19334,-0.84587 -0.41085,-1.74007 -0.48335,-2.00592c-0.09667,-0.31418 -0.04834,-0.41085 0.16917,-0.33835zM15.70743,26.10929c0.7492,0.70086 1.52256,2.97262 1.52256,4.49519c0,0.36252 0.09667,0.84587 0.21751,1.06338c0.33835,0.62836 0.48335,3.60098 0.24168,4.49519c-0.16917,0.60419 -0.45919,0.8942 -1.20838,1.23255c-1.78841,0.8217 -2.36843,-0.16917 -3.26264,-5.51023c-0.62836,-3.69765 -0.65253,-5.41356 -0.09667,-6.09025c0.50752,-0.60419 1.74007,-0.43502 2.58594,0.31418zM12.10645,25.91595c0.36252,0 0.41085,0.21751 0.33835,1.61923c-0.12084,2.68261 1.08755,8.89371 1.90925,9.90875c0.29001,0.33835 0.12084,0.41085 -0.99087,0.33835c-1.47423,-0.09667 -2.77928,-3.02096 -3.11763,-6.91196c-0.21751,-2.48927 0,-3.69765 0.8217,-4.39852c0.33835,-0.31418 0.8217,-0.55586 1.03921,-0.55586zM35.01741,30.89449c-0.99087,6.59778 -1.78841,8.09617 -3.60098,6.83945c-1.45006,-1.03921 -1.45006,-1.03921 -1.28089,-3.19013c0.09667,-1.08755 0.26584,-2.41677 0.38668,-2.94846c0.12084,-0.53169 0.33835,-1.66757 0.50752,-2.53761c0.31418,-1.74007 0.70086,-2.3201 1.78841,-2.80345c2.24759,-0.99087 2.85179,0.24168 2.19926,4.64019zM37.16833,27.17267c0.53169,0.62836 0.60419,0.94254 0.60419,2.63428c0,2.03008 -0.50752,5.00271 -1.13588,6.54944c-0.45919,1.18422 -1.35339,1.88508 -2.36843,1.88508h-0.77337l0.45919,-0.94254c0.58002,-1.18422 1.66757,-7.39531 1.6434,-9.32872c-0.02417,-0.79753 -0.02417,-1.52256 -0.02417,-1.61923c0.04834,-0.33835 1.03921,0.14501 1.59507,0.8217zM9.76218,29.73445c0.21751,2.92429 0.84587,5.70357 1.5709,7.05696l0.60419,1.08755l-0.60419,-0.58002c-0.7492,-0.70086 -1.20838,-2.07842 -1.71591,-4.95437c-0.41085,-2.36843 -0.43502,-3.33514 -0.19334,-4.25351c0.12084,-0.41085 0.24168,0.09667 0.33835,1.6434zM38.54589,28.59856c0.62836,1.61923 -0.87004,8.57953 -1.98175,9.28039c-0.36252,0.21751 -0.29001,0 0.21751,-0.8942c0.62836,-1.11171 1.25672,-3.98767 1.40173,-6.69445c0.12084,-1.76424 0.19334,-2.15092 0.36252,-1.69174zM9.25466,31.83703c0.24168,1.45006 0.50752,2.94846 0.60419,3.31097c0.12084,0.43502 0.0725,0.67669 -0.09667,0.67669c-0.43502,0 -0.72503,-0.8217 -1.08755,-3.11763c-0.29001,-1.66757 -0.29001,-2.3926 -0.09667,-2.87595c0.24168,-0.58002 0.31418,-0.36252 0.67669,2.00592zM39.15008,29.78278c0.04834,0 0.19334,0.26584 0.31418,0.60419c0.43502,1.13588 -0.77337,6.4286 -1.35339,5.84858c-0.04834,-0.04834 0.04834,-0.84587 0.24168,-1.76424c0.19334,-0.91837 0.43502,-2.34426 0.53169,-3.19013c0.0725,-0.8217 0.19334,-1.4984 0.26584,-1.4984z" fill="#57336a" stroke-width="0"></path><path d="M2,24c0,-12.15026 9.84974,-22 22,-22c12.15026,0 22,9.84974 22,22c0,12.15026 -9.84974,22 -22,22c-12.15026,0 -22,-9.84974 -22,-22z" id="base 1 5 1" fill="none" stroke-width="1"></path><path d="M2,24c0,-12.15026 9.84974,-22 22,-22c12.15026,0 22,9.84974 22,22c0,12.15026 -9.84974,22 -22,22c-12.15026,0 -22,-9.84974 -22,-22z" id="base 1 1 1" fill="none" stroke-width="1"></path><g fill="#000000" stroke-width="1" font-family="Roboto, sans-serif" font-weight="400" font-size="14" text-anchor="start"><g></g></g><rect x="2" y="2" width="44" height="22" fill="none" stroke-width="1"></rect><path d="M2,24v-22h44v22z" fill="none" stroke-width="1"></path><path d="M2,24v-22h44v22z" fill="none" stroke-width="1"></path><path d="M2,24v-22h44v22z" fill="none" stroke-width="1"></path><path d="M2,24v-22h44v22z" fill="none" stroke-width="1"></path><g fill="#000000" stroke-width="1" font-family="Roboto, sans-serif" font-weight="400" font-size="14" text-anchor="start"><g></g></g><rect x="2" y="2" width="44" height="22" fill="none" stroke-width="1"></rect><path d="M2,24v-22h44v22z" fill="none" stroke-width="1"></path><path d="M2,24v-22h44v22z" fill="none" stroke-width="1"></path><path d="M2,24v-22h44v22z" fill="none" stroke-width="1"></path><path d="M2,24v-22h44v22z" fill="none" stroke-width="1"></path></g></svg>