<svg version="1.1" xmlns="http://www.w3.org/2000/svg" width="48" height="48"><defs><linearGradient x1="6.92646" y1="8.37004" x2="41.46158" y2="40.01801" gradientUnits="userSpaceOnUse" id="color-1"><stop offset="1" stop-color="#000000" stop-opacity="0.01"></stop><stop offset="1" stop-color="#000000" stop-opacity="0"></stop></linearGradient><filter id="dropshadow-base"><feColorMatrix type="matrix" values="0 0 0 0 0  0 0 0 0 0  0 0 0 0 0  0 0 0 .8 0"></feColorMatrix> <feOffset dx="0" dy="1"></feOffset> <feGaussianBlur stdDeviation="1"></feGaussianBlur> <feComposite in="SourceGraphic"></feComposite></filter><filter id="dropshadow-banner" x="-10%" y="-10%" width="120%" height="130%"><feColorMatrix type="matrix" values="0 0 0 0 0  0 0 0 0 0  0 0 0 0 0  0 0 0 .4 0"></feColorMatrix> <feOffset dx="0" dy="1"></feOffset> <feGaussianBlur stdDeviation="0.5"></feGaussianBlur> <feComposite in="SourceGraphic"></feComposite></filter></defs><g fill="none" fill-rule="nonzero" stroke="none" stroke-width="none" stroke-linecap="butt" stroke-linejoin="miter" stroke-miterlimit="10" stroke-dasharray="" stroke-dashoffset="0" font-family="none" font-weight="none" font-size="none" text-anchor="none" style="mix-blend-mode: normal"><path d="M2,24c0,-12.15026 9.84974,-22 22,-22c12.15026,0 22,9.84974 22,22c0,12.15026 -9.84974,22 -22,22c-12.15026,0 -22,-9.84974 -22,-22z" id="base 1 9" fill="#3f51b5" stroke-width="1"></path><path d="M35.60432,12.99006c1.32621,1.5384 2.25455,3.39508 2.8646,5.72918c0.55701,2.14845 0.98139,7.37367 0.6631,8.19592c-0.11504,0.30678 -0.16079,0.39179 -0.31758,0.235l-0.38802,-0.38802c-0.06011,-0.06011 -0.13653,-0.15575 -0.23943,-0.28805c-0.23872,-0.34482 -0.37133,-1.19358 -0.39786,-2.51978c0,-2.99721 -0.42438,-4.90694 -1.67101,-7.45324l-0.97583,-2.04458l-2.50865,-0.98899c-5.62309,-2.2015 -8.72639,-2.33411 -14.95954,-0.63657l-3.66031,1.00792l-0.90181,1.48535c-0.50396,0.82225 -1.03444,1.61796 -1.16706,1.80363c-0.30042,0.34664 -0.60588,1.10605 -0.86594,2.07868h0.82272c0.48896,0 1.07779,0.17479 1.30621,0.40321l0.38802,0.38802c0.00528,0.00528 0.01036,0.01058 0.01525,0.01592l0.02502,0.02502c0.51079,0.51079 0.53023,1.52513 0.03277,2.02259c-0.34482,0.34482 -0.34482,0.55701 0,1.64449c0.34951,1.17337 0.32305,1.73579 -0.03514,1.3776l-0.38802,-0.38802c-0.02236,-0.02236 -0.04602,-0.04831 -0.07095,-0.07792c-0.13263,-0.13263 -0.37133,-0.74267 -0.55701,-1.37925c-0.0897,-0.32186 -0.18675,-0.5755 -0.28467,-0.76174c-0.23559,-0.01204 -0.41479,0.44723 -0.41479,1.36196c0,0.71615 -0.1061,1.32621 -0.26524,1.32621c-0.01102,0 -0.02178,-0.00534 -0.03227,-0.01583l-0.38802,-0.38802c-0.14106,-0.14106 -0.23297,-1.21385 -0.23297,-2.76919l0,-2.47696c-0.29821,1.20952 -0.52448,2.69278 -0.59336,4.11164c-0.08091,1.47656 -0.19266,2.42868 -0.34703,2.87988c0.32985,-0.23861 0.69921,-0.40336 0.88735,-0.40336l0.00002,0.00002c0.11249,0 0.19742,0.01909 0.25957,0.08125c0,0 0,0 0,0l0.38802,0.38802c0.05299,0.05299 0.08944,0.13729 0.1123,0.26777c0.07141,-0.38629 0.18961,-0.66942 0.35408,-0.86965c0.55701,-0.6631 1.90973,-0.47743 2.83807,0.34482v-0.00002c0.01295,0.01211 0.0259,0.02465 0.03886,0.03761l0.38802,0.38802c0.80991,0.80991 1.63215,3.25115 1.63215,4.89586c0,0.39786 0.1061,0.92834 0.23872,1.16706l-0.38802,-0.38802c-0.13263,-0.23872 -0.23872,-0.7692 -0.23872,-1.16706c0,-1.51627 -0.69883,-3.70952 -1.44257,-4.67743c-0.91763,-0.70837 -2.15263,-0.83882 -2.67848,-0.21282c-0.61005,0.74268 -0.58352,2.62588 0.1061,6.68406c0.58441,3.49064 1.04654,5.28827 1.73926,5.98099l-0.38802,-0.38802c-0.69272,-0.69272 -1.15485,-2.49035 -1.73926,-5.98099c-0.21021,-1.23705 -0.35882,-2.27199 -0.44655,-3.13414c0.17479,3.29112 1.29095,8.64645 2.08122,9.62266c0.31829,0.37133 0.13263,0.45091 -1.08748,0.37133c-0.38841,-0.02547 -0.76613,-0.22978 -1.12103,-0.58469c0,0 0,0 0,0l-0.38802,-0.38802c-1.12347,-1.12347 -2.01837,-3.75597 -2.30056,-7.00118c-0.22787,-2.6078 -0.02071,-3.93472 0.78294,-4.71896l-0.38234,-0.38234c-0.13437,-0.13437 -0.16189,-0.76293 -0.16189,-2.27234c0,-4.13774 1.06097,-8.01024 2.9707,-10.84831c0.71615,-1.08748 1.27316,-1.51186 3.12984,-2.4402c2.14845,-1.08748 4.93347,-2.12192 6.36575,-2.36064c1.5384,-0.26524 4.48256,-0.15914 6.10052,0.21219v-0.00003c2.38022,0.55707 6.09001,2.4437 7.34458,3.69827l0.38802,0.38802c0.05957,0.05957 0.11361,0.11772 0.16171,0.17423zM14.29422,39.02322l1.84148,0.06648l-0.38802,-0.38802c0.82225,-0.37133 1.14053,-0.68962 1.32621,-1.35272l0.38802,0.38802c-0.18567,0.6631 -0.50396,0.98139 -1.32621,1.35272c-0.79396,0.36479 -1.37092,0.40408 -1.84148,-0.06648l0,0c0,0 0,0 0,0zM9.29253,31.9282c0.26589,3.05779 1.07577,5.5716 2.10828,6.7916c0.29684,0.24483 0.60749,0.3854 0.92529,0.40624c1.22011,0.07958 1.40577,0 1.08748,-0.37133c-0.90182,-1.11401 -2.22803,-7.93068 -2.0954,-10.87484c0.03604,-0.69668 0.04488,-1.12682 0.00681,-1.38895c-0.24321,0.00707 -0.76436,0.26977 -1.13065,0.60991c-0.90181,0.7692 -1.14053,2.0954 -0.90181,4.82738zM11.38792,22.37956c0,0.82231 0.02569,1.50974 0.07076,1.9959c0.04564,-0.24145 0.07169,-0.57025 0.07169,-0.92511c0,-1.15096 0.2837,-1.58083 0.60647,-1.25806l0.38802,0.38802c0.16072,0.16072 0.33112,0.50804 0.48101,1.04587c0.13532,0.46394 0.29881,0.91379 0.42887,1.175c0.1625,-0.02727 0.11818,-0.57038 -0.15379,-1.48344c-0.26942,-0.84971 -0.32833,-1.16504 -0.17673,-1.4268c-0.12051,0.05541 -0.30836,0.09077 -0.52273,0.09077c-0.25093,0 -0.40867,-0.01962 -0.50696,-0.11791l-0.38802,-0.38802c-0.13029,-0.13029 -0.15614,-0.3988 -0.15614,-0.94305c0,-0.46304 0.06681,-0.77577 0.19545,-0.93818h-0.3379zM12.19347,21.59369c0.37133,0 0.6631,-0.1061 0.6631,-0.23872c0,-0.13263 0.07958,-0.42438 0.15914,-0.63657c0.06217,-0.16578 -0.00518,-0.4287 -0.15147,-0.64962c-0.61207,-0.46703 -0.94586,-0.18303 -0.94586,0.85197c0,0.29389 0.00754,0.50738 0.03499,0.66212c0.06861,0.00819 0.14809,0.01082 0.24009,0.01082zM13.40374,21.10642c-0.07333,0.19557 -0.14667,0.45872 -0.15772,0.60258c0.01122,-0.01178 0.02286,-0.02369 0.03493,-0.03575c0.43414,-0.43414 0.4746,-1.26194 0.13835,-1.80516c-0.26778,-0.15282 -0.68897,-0.26112 -1.06462,-0.27255c0.1124,0.07138 0.23562,0.17159 0.36926,0.30061l0.38802,0.38802c0.23872,0.23872 0.37135,0.61005 0.29177,0.82225zM28.09804,9.1176c-1.61796,-0.37133 -4.56212,-0.47743 -6.10052,-0.21219c-1.43228,0.23872 -4.2173,1.27316 -6.36575,2.36064c-1.85668,0.92834 -2.41369,1.35272 -3.12984,2.4402c-1.90973,2.83807 -2.9707,6.71057 -2.9707,10.84831c0,0.84739 0.00868,1.41715 0.04006,1.77772c0.20754,-0.29785 0.34975,-1.3155 0.44721,-3.09408c0.13263,-2.73197 0.84878,-5.70267 1.5384,-6.49838c0.13263,-0.18567 0.6631,-0.98139 1.16706,-1.80363l0.90181,-1.48535l3.66031,-1.00792c6.23314,-1.69754 9.33645,-1.56493 14.95954,0.63657l2.75849,1.08748l0.38802,0.38802l1.11401,2.33411c1.24663,2.5463 1.67101,4.45603 1.67101,7.45324c0.02595,1.29701 0.15335,2.13736 0.38225,2.49628c0.06498,-0.00789 0.11036,-0.11351 0.1846,-0.31147c0.31829,-0.82225 -0.1061,-6.04747 -0.6631,-8.19592c-0.60823,-2.32713 -1.53285,-4.17968 -2.85271,-5.71537c-1.42128,-1.24666 -4.87334,-2.9701 -7.13015,-3.49829zM23.58895,20.46983c0,0.1899 0.00485,0.33938 0.02213,0.45643c0.09009,0.00962 0.19957,0.00963 0.33251,0.00431c0.29064,0 0.4707,0.02212 0.59824,0.14966l0.38802,0.38802c0.1518,0.1518 0.2292,0.45295 0.3301,1.04392c0.15914,0.74267 0.13263,1.45882 -0.05305,1.90973c-0.23872,0.61005 -0.42438,0.71615 -1.22011,0.68962l-0.92834,-0.02653l-0.38802,-0.38802v-2.75849c0,-1.64449 0.1061,-2.73197 0.26524,-2.73197l0.00002,0.00002c0.02972,0 0.05758,0.01387 0.08325,0.03954c0,0 0,0 0,0l0.38802,0.38802c0.11181,0.11181 0.18199,0.44747 0.18199,0.83575zM23.05846,24.70805l0.54032,0.01544c0.14141,0.00471 0.26355,0.00524 0.37014,-0.0005c-0.01467,-0.00989 -0.02877,-0.02156 -0.04233,-0.03511l-0.38802,-0.38802c-0.16116,-0.16116 -0.24502,-0.58895 -0.28459,-1.45955c-0.07958,-1.37924 -0.02653,-1.51186 0.47743,-1.51186c0.17581,0 0.29674,0.01614 0.37631,0.09571l0.38802,0.38802c0.14852,0.14852 0.15294,0.51805 0.10112,1.41615c-0.03703,0.81476 -0.11285,1.2417 -0.25452,1.42521c0.22262,-0.08944 0.34103,-0.27335 0.47655,-0.61965c0.18567,-0.45091 0.21219,-1.16706 0.05305,-1.90973c-0.06015,-0.35231 -0.11195,-0.60162 -0.17614,-0.77768c-0.09804,-0.02219 -0.21691,-0.02787 -0.36417,-0.02787c-0.31647,0.01266 -0.50002,-0.00488 -0.60545,-0.11031l-0.38802,-0.38802c-0.11547,-0.11547 -0.13722,-0.33636 -0.13722,-0.73845c0,-0.06848 -0.00218,-0.13532 -0.00639,-0.19958c-0.08477,0.42647 -0.13608,1.30069 -0.13608,2.44427zM23.77369,24.37589c0.26245,-0.03604 0.38472,-0.42648 0.43513,-1.5356c0.03152,-0.54628 0.04223,-0.897 0.01237,-1.12137c-0.03167,-0.00178 -0.06556,-0.00247 -0.10177,-0.00247c-0.50396,0 -0.55701,0.13263 -0.47743,1.51186c0.02443,0.53748 0.06574,0.90618 0.1317,1.14757zM26.77183,22.37956c0,1.67101 -0.1061,2.78502 -0.26524,2.78502c-0.01102,0 -0.02178,-0.00534 -0.03227,-0.01583l-0.38802,-0.38802c-0.14106,-0.14106 -0.23297,-1.21385 -0.23297,-2.76919c0,-1.67101 0.1061,-2.78502 0.26524,-2.78502c0.01102,0 0.02178,0.00534 0.03227,0.01583l0.38802,0.38802c0.14106,0.14106 0.23297,1.21385 0.23297,2.76919zM26.29472,24.16481c0.05636,-0.48902 0.08908,-1.24525 0.08908,-2.17328c0,-0.70982 -0.01914,-1.31914 -0.05337,-1.78525c-0.05636,0.48902 -0.08908,1.24525 -0.08908,2.17328c0,0.70982 0.01914,1.31914 0.05337,1.78525zM34.54337,20.04545c-0.18567,0.05305 -0.34482,0.34482 -0.34482,0.61005c0,0.10301 0.02401,0.21003 0.06425,0.30706c0.02765,0.01709 0.04904,0.0329 0.06415,0.04801l0.38802,0.38802c0.06737,0.06737 0.01017,0.12088 -0.1716,0.21176c-0.23872,0.1061 -0.34482,0.74267 -0.34482,1.85668c0,1.32621 -0.07958,1.69754 -0.39786,1.69754c-0.07417,0 -0.13538,-0.02161 -0.18631,-0.07254l-0.38802,-0.38802c-0.16763,-0.16763 -0.22392,-0.65292 -0.2646,-1.7311c-0.02653,-1.98931 0,-2.67893 0.18567,-3.18289c0.05305,-0.15914 0.39786,-0.31829 0.71615,-0.29177l0.00002,0.00002c0.19606,0 0.31493,0.02573 0.35176,0.06256l0.38802,0.38802c0.02794,0.02794 0.00865,0.06226 -0.06001,0.09659zM33.34978,23.36095c0.02595,0.68761 0.05824,1.13407 0.12172,1.41079c0.26942,-0.04723 0.33904,-0.45232 0.33904,-1.69272c0,-1.11401 0.1061,-1.75059 0.34482,-1.85668c0.08507,-0.04253 0.14286,-0.07688 0.17336,-0.10829l-0.29787,-0.29787c-0.12704,-0.12704 -0.22031,-0.34564 -0.22031,-0.54869c0,-0.11554 0.0302,-0.23611 0.07963,-0.3398c-0.17921,0.0547 -0.3221,0.15254 -0.35471,0.25038c-0.18567,0.50396 -0.21221,1.19358 -0.18567,3.18289zM16.81589,25.04772l-0.38802,-0.38802c-0.15294,-0.15294 -0.29084,-0.51265 -0.33536,-0.89106c-0.01859,-0.16263 -0.04368,-0.30166 -0.07458,-0.41665c-0.10832,0.04697 -0.22974,0.18165 -0.35964,0.40681c-0.18567,0.34482 -0.13263,0.61005 0.18567,0.98139c0.42438,0.45091 0.42438,0.47743 -0.21219,0.39786c-0.25577,-0.04038 -0.44664,-0.13201 -0.57303,-0.2584l-0.38802,-0.38802c-0.37169,-0.37169 -0.18585,-1.04407 0.5465,-1.59828c0.5905,-0.43811 0.88005,-0.9583 0.8097,-1.33461c-0.1184,0.01233 -0.23149,0.11032 -0.28905,0.26382c-0.07958,0.23872 -0.34482,0.42438 -0.53048,0.42438c-0.11423,0 -0.18747,-0.01367 -0.22461,-0.05081l-0.38802,-0.38802c-0.06635,-0.06635 -0.01752,-0.2076 0.11851,-0.47967c0.33047,-0.61372 1.24914,-0.68127 1.70907,-0.22133l0.38802,0.38802c0.05688,0.05688 0.10674,0.12182 0.14761,0.1948l-0.00002,0.00002c0.39786,0.7692 0.34482,3.55422 -0.05305,3.42159c-0.02986,-0.0128 -0.05971,-0.03451 -0.08902,-0.06381zM15.80766,21.21836c0.02677,0.01928 0.05114,0.03998 0.07314,0.06198l0.38802,0.38802c0.30676,0.30676 0.15342,0.86704 -0.38038,1.37555l0.35298,0.35298c0.11108,0.11108 0.19415,0.36635 0.23911,0.75976c0.02273,0.1932 0.0698,0.38153 0.13079,0.53995c0.30558,-0.2985 0.3221,-2.6356 -0.02876,-3.3693c-0.23136,-0.12357 -0.51279,-0.1603 -0.7749,-0.10895zM15.07408,21.77156c0.11997,-0.07683 0.22939,-0.19792 0.27576,-0.33703c0.00214,-0.0057 0.00435,-0.01133 0.00664,-0.01688c-0.1025,0.07858 -0.19021,0.17814 -0.25519,0.29881c-0.0095,0.019 -0.01857,0.03736 -0.02721,0.0551zM15.24374,24.75002c0.63657,0.07956 0.63657,0.05305 0.21219,-0.39786c-0.20908,-0.24392 -0.30372,-0.44206 -0.29141,-0.64705c-0.26694,0.33835 -0.35139,0.68177 -0.25126,0.95003c0.09448,0.04272 0.20462,0.075 0.33048,0.09488zM18.57592,21.5308c-0.02653,0.1061 -0.02653,0.95487 -0.02653,1.90973c0,0.98139 -0.1061,1.72405 -0.26524,1.72405c-0.01439,0 -0.02834,-0.00694 -0.04182,-0.02042c0,0 0,0 0,0l-0.38802,-0.38802c-0.13564,-0.13564 -0.22342,-0.93384 -0.22342,-1.99541c0,-1.29967 0.1061,-1.96278 0.29177,-1.90973c0.06977,0.02326 0.12935,0.06181 0.17426,0.10672l0.38802,0.38802c0.05752,0.05752 0.09098,0.12547 0.09098,0.18505zM18.06954,24.39529c0.05804,-0.31121 0.09182,-0.78899 0.09182,-1.34279c0,-0.70587 0,-1.35378 0.01072,-1.68653c-0.09888,0.24909 -0.15317,0.85306 -0.15317,1.78279c0,0.48237 0.01812,0.91037 0.05063,1.24654zM20.35303,23.22834c0.05305,1.22011 -0.02653,1.93626 -0.21219,1.93626c-0.01822,0 -0.03575,-0.00869 -0.0525,-0.02545c0,0 0,0 0,0l-0.38802,-0.38802c-0.12955,-0.12955 -0.21273,-0.74092 -0.21273,-1.53946c0,-1.11401 -0.13263,-1.69754 -0.45091,-2.01582c-0.39786,-0.42438 -0.39786,-0.45091 0.21219,-0.34482v-0.00002c0.20617,0.02689 0.34569,0.05682 0.44314,0.15426l0.38802,0.38802c0.1909,0.1909 0.22033,0.64095 0.27301,1.83504zM19.63688,21.23905c-0.61005,-0.1061 -0.61005,-0.07956 -0.21219,0.34482c0.31829,0.31829 0.45091,0.90181 0.45091,2.01582c0,0.33358 0.01452,0.63449 0.04086,0.88127c0.06322,-0.31792 0.08153,-0.88181 0.04854,-1.64064c-0.03641,-0.82515 -0.06171,-1.295 -0.13686,-1.56957c-0.05644,-0.01272 -0.11986,-0.0224 -0.19127,-0.03172zM21.94446,23.25485c0.05305,1.19358 -0.02653,1.90973 -0.21219,1.90973c-0.0175,0 -0.03435,-0.00834 -0.0505,-0.02448l-0.38802,-0.38802c-0.13069,-0.13069 -0.21474,-0.77304 -0.21474,-1.64652c0,-0.95339 -0.12517,-1.75659 -0.30253,-1.99619l-0.09044,-0.09044c-0.20342,-0.20342 -0.12316,-0.23982 0.26036,-0.16792h-0.00002c0.12668,0.02236 0.22405,0.05727 0.30034,0.13357l0.38802,0.38802c0.19528,0.19528 0.25249,0.66162 0.30971,1.88225zM21.01978,21.34879l0.12897,0.12897c0.18566,0.21219 0.31829,1.03444 0.31829,2.01582c0,0.37509 0.0155,0.70756 0.04353,0.97519c0.06106,-0.31785 0.07839,-0.87016 0.04587,-1.60194c-0.03988,-0.8508 -0.07977,-1.33514 -0.1664,-1.61666c-0.01789,-0.00407 -0.03643,-0.00775 -0.05563,-0.01114l0,0c-0.34358,-0.06441 -0.44376,-0.0419 -0.31462,0.10976zM29.13247,21.23903l0,0c0.11638,0.01108 0.21539,0.02796 0.29969,0.05401c0.04121,0.12496 0.06592,0.28394 0.08149,0.48631c0.05336,0.55135 0.04709,0.75685 -0.19474,0.83241c-0.0886,0.10733 -0.23187,0.16567 -0.42516,0.16567c-0.13036,0 -0.24086,-0.04633 -0.32736,-0.12065c-0.57366,0.0152 -0.60991,0.12828 -0.53807,0.84662c0.04363,0.4036 0.1725,0.69954 0.32387,0.85091l0.28838,0.28838c-0.04282,0.00086 -0.08773,0.00126 -0.13482,0.00126h-0.56039l-0.05951,-1.15037c-0.0367,-0.66069 0.00278,-1.21978 0.0921,-1.58065c-0.05271,-0.2623 0.04499,-0.55601 0.34211,-0.66406c0.1989,-0.0663 0.35637,-0.06815 0.4724,-0.00555c0.11437,-0.01713 0.23064,-0.01991 0.34001,-0.00429zM29.51947,23.98907c-0.00169,0.01464 -0.00363,0.02958 -0.0058,0.04482c-0.02446,0.2324 -0.07713,0.3802 -0.20222,0.47199c0.01193,-0.03418 0.02305,-0.07099 0.03324,-0.1105c0.04519,-0.18074 0.10765,-0.31593 0.17479,-0.40632zM31.4764,21.11624c0.28177,-0.28177 0.56355,-0.38028 0.68307,-0.26075l0.38802,0.38802c0.03799,0.03799 0.05959,0.09801 0.05959,0.18117c0,0.13263 -0.23872,0.29177 -0.53048,0.37133c-0.45091,0.1061 -0.53048,0.37133 -0.53048,1.75059c0,0.90181 -0.1061,1.61796 -0.26524,1.61796c-0.01441,0 -0.02838,-0.00696 -0.04188,-0.02045l-0.38802,-0.38802c-0.13561,-0.13561 -0.22336,-0.93156 -0.22336,-1.96885c0,-1.14053 0.1061,-1.98931 0.26524,-1.98931l0.00003,0.00003c0.07041,0.00001 0.13044,0.02598 0.17549,0.07103l0.32568,0.32568c0.02505,-0.0224 0.05244,-0.04854 0.08232,-0.07843zM31.06708,24.40858c0.05756,-0.29538 0.09104,-0.74339 0.09104,-1.25c0,-1.05918 0.04692,-1.46139 0.2729,-1.63908l-0.23801,-0.23801c-0.10911,0.25209 -0.17734,0.97911 -0.17734,1.89377c0,0.47518 0.01842,0.89971 0.05141,1.23332zM35.94914,22.80394c0.03081,0.15966 0.05985,0.30127 0.08758,0.42446c0.08875,-0.25344 0.18971,-0.73186 0.32011,-1.44906c0.07958,-0.53048 0.26524,-0.98139 0.39786,-0.98139c0.05884,0 0.1059,0.01269 0.14017,0.04696c0,0 0,0 0,0l0.38802,0.38802c0.15108,0.15108 0.05352,0.72157 -0.37889,2.47282c-0.53048,2.17497 -0.71615,2.51978 -1.32621,2.51978c-0.01826,-0.00114 -0.03573,-0.00223 -0.05242,-0.00331c0.10987,0.04978 0.20854,0.11824 0.29624,0.20594l0.38802,0.38802c0.28835,0.28835 0.45811,0.78472 0.5176,1.50941c-0.02558,-0.86273 -0.02558,-1.64061 -0.02558,-1.74542c0.04762,-0.33331 0.92866,0.05996 1.54978,0.68108l0.38802,0.38802c0.07086,0.07086 0.13833,0.14468 0.2008,0.22073h-0.00002c0.58352,0.68962 0.6631,1.03444 0.6631,2.89112c0,0.9215 -0.09528,2.01995 -0.25582,3.11145c0.15249,-0.95728 0.26538,-1.97356 0.31871,-2.96898c0.10888,-1.58954 0.18199,-2.16018 0.30741,-2.03476c0,0 0,0 0,0l0.38802,0.38802c0.02736,0.02736 0.0572,0.08783 0.09045,0.17808h-0.00002c0.10829,0.27904 0.15902,0.70262 0.16289,1.22143c0.0413,-0.19466 0.08086,-0.3098 0.11219,-0.3098l0.00002,0.00002c0.00782,0.00001 0.01795,0.00636 0.02996,0.01837c0,0 0,0 0,0l0.38802,0.38802c0.06945,0.06945 0.20178,0.32818 0.31484,0.64474c0.47743,1.24663 -0.84876,7.05539 -1.48535,6.4188l-0.38802,-0.38802c-0.02962,-0.02962 -0.00962,-0.31558 0.05075,-0.73784c-0.42189,1.47375 -0.91885,2.65121 -1.36026,2.9295c-0.12699,0.0762 -0.20534,0.10375 -0.23505,0.07404l-0.38802,-0.38802c-0.02683,-0.02683 -0.01399,-0.10035 0.0385,-0.22693c-0.52083,0.60288 -1.19906,0.93876 -1.93519,0.93876h-0.84876l-0.38802,-0.38802l0.08744,-0.17948c-0.53335,0.6335 -1.16282,0.57745 -1.98051,0.01052c-0.47135,-0.3378 -0.8031,-0.57555 -1.03176,-0.80422l-0.38802,-0.38802c-0.54339,-0.54339 -0.50469,-1.03548 -0.374,-2.69695c0.1061,-1.19358 0.29177,-2.65239 0.42438,-3.23593c0.13263,-0.58352 0.37133,-1.83015 0.55701,-2.78502c0.34482,-1.90973 0.7692,-2.5463 1.96278,-3.07679c0.63157,-0.27843 1.14491,-0.3969 1.54713,-0.33804l-0.34506,-0.34506c-0.04032,-0.04032 0.06294,-0.12422 0.30979,-0.32478c0.42438,-0.29177 0.42438,-0.47743 0.05305,-2.04236c-0.21219,-0.92834 -0.45091,-1.90973 -0.53048,-2.2015c-0.1061,-0.34482 -0.05305,-0.45091 0.18567,-0.37133c0.0275,0.01031 0.05634,0.03088 0.08606,0.06059l0.38802,0.38802c0.19954,0.19954 0.43853,0.81174 0.57704,1.50432zM40.13993,35.88026c-0.10104,0.47993 -0.17802,0.92979 -0.22522,1.27513c0.65353,-1.16387 1.44252,-5.13983 1.0573,-6.14569c-0.01222,-0.03421 -0.02466,-0.06774 -0.03722,-0.10043c-0.07191,0.27156 -0.15494,0.83073 -0.21134,1.46982c-0.1061,0.92834 -0.37133,2.49325 -0.58352,3.50117zM39.95427,31.29163c-0.05784,1.0796 -0.18573,2.18372 -0.35823,3.21052c0.38852,-1.81773 0.6177,-3.71685 0.50044,-4.8338c-0.04566,0.32897 -0.08979,0.85805 -0.14221,1.62328zM38.45225,27.482c-0.00641,-0.00781 -0.01288,-0.01559 -0.01939,-0.02335c-0.59323,-0.50621 -1.30064,-0.78814 -1.34317,-0.49044c0,0.1061 0,0.90181 0.02653,1.7771c0.02652,2.12192 -1.16706,8.93858 -1.80363,10.23826l-0.31492,0.64641h0.2717c1.114,0 2.09539,-0.7692 2.59935,-2.06887c0.68962,-1.69754 1.24663,-4.95999 1.24663,-7.188c0,-1.85668 -0.07958,-2.2015 -0.6631,-2.89112zM36.09159,31.56669c0.38156,-2.57202 0.37159,-4.15767 -0.0941,-4.91342c-0.43926,-0.25174 -1.07724,-0.16781 -1.93157,0.20883c-1.19358,0.53049 -1.61796,1.16706 -1.96278,3.07679c-0.18567,0.95487 -0.42438,2.2015 -0.55701,2.78502c-0.13261,0.58354 -0.31829,2.04236 -0.42438,3.23593c-0.11571,1.47118 -0.15931,2.0255 0.20947,2.51043c0.20733,0.17204 0.47235,0.36197 0.80828,0.60272c1.98931,1.37925 2.8646,-0.26524 3.95208,-7.50628zM35.63084,23.81186c0.19677,0.82927 0.28927,1.27124 0.26961,1.54692c0.18255,-0.36353 0.3586,-0.98763 0.61552,-2.04104c0.21754,-0.88103 0.35034,-1.46322 0.40935,-1.8435c-0.0735,0.17933 -0.14042,0.42615 -0.18047,0.69313c-0.22937,1.26154 -0.36766,1.78431 -0.50863,1.64334l-0.38802,-0.38802c-0.08725,-0.08725 -0.17554,-0.42877 -0.28708,-1.00677c-0.09464,-0.47319 -0.23618,-0.90887 -0.38,-1.20104c-0.14716,-0.01293 -0.16899,0.10873 -0.08076,0.39549c0.07956,0.29177 0.31829,1.27316 0.53048,2.2015zM11.14919,39.62016l-0.6631,-0.63657c-0.02043,-0.01911 -0.04066,-0.03868 -0.0607,-0.05872c0,0 0,0 0,0l-0.38802,-0.38802c-0.68617,-0.68617 -1.14871,-1.92591 -1.61616,-4.2743c0.19291,1.11423 0.36944,2.06983 0.44693,2.36041c0.13263,0.47743 0.07958,0.74267 -0.1061,0.74267c-0.10247,0 -0.19761,-0.04154 -0.28778,-0.13171l-0.38802,-0.38802c-0.32994,-0.32994 -0.59332,-1.31093 -0.90579,-3.28988c-0.31829,-1.83015 -0.31829,-2.62588 -0.1061,-3.15635c0.09649,-0.23158 0.16841,-0.34732 0.24002,-0.27571l0.38802,0.38802c0.07111,0.07111 0.14192,0.32696 0.23618,0.83758c-0.16746,-1.36364 -0.12902,-2.12569 0.06412,-2.85961c0.03755,-0.12767 0.0751,-0.17454 0.11205,-0.13759l0.38802,0.38802c0.09354,0.09354 0.18322,0.72433 0.25928,1.94121l0,0c0.23872,3.2094 0.92834,6.25966 1.72405,7.74501zM7.49989,30.70098c-0.01211,0.0267 -0.0246,0.05566 -0.03753,0.08669c-0.21219,0.53048 -0.21219,1.32621 0.1061,3.15635c0.25218,1.59714 0.47239,2.54425 0.72142,3.02371c0.02751,0.00663 0.05553,0.00986 0.08413,0.00986c0.18567,0 0.23872,-0.26524 0.1061,-0.74267c-0.1061,-0.39785 -0.39786,-2.04234 -0.6631,-3.63378c-0.13631,-0.89058 -0.23526,-1.50406 -0.31711,-1.90016zM8.37401,30.29357c-0.02428,-0.38853 -0.04995,-0.71731 -0.0767,-0.98794c-0.15626,0.90516 -0.08261,2.00277 0.30558,4.24055c0.51249,2.90415 0.98008,4.41611 1.692,5.23834l0.46627,0.44761l-0.6631,-1.19358c-0.79571,-1.48535 -1.48533,-4.53561 -1.72405,-7.74501z" fill="url(#color-1)" stroke-width="1"></path><path d="M27.71001,8.72954c2.49326,0.58353 6.44533,2.62588 7.50629,3.8725c1.3262,1.53839 2.25454,3.39507 2.86459,5.72918c0.557,2.14844 0.98139,7.37367 0.6631,8.19592c-0.15914,0.42438 -0.18567,0.42438 -0.557,-0.05305c-0.23872,-0.34481 -0.37134,-1.19358 -0.39786,-2.51978c0,-2.99721 -0.42438,-4.90694 -1.67101,-7.45324l-1.11401,-2.33411l-2.7585,-1.08748c-5.62309,-2.20149 -8.7264,-2.33411 -14.95954,-0.63658l-3.66031,1.00791l-0.90182,1.48534c-0.50396,0.82224 -1.03444,1.61796 -1.16706,1.80363c-0.68962,0.79572 -1.40577,3.76641 -1.53839,6.49838c-0.1061,1.93625 -0.26524,2.97069 -0.50396,3.15636c-0.31829,0.26524 -0.37134,-0.13262 -0.37134,-2.22802c0,-4.13774 1.06096,-8.01025 2.97069,-10.84832c0.71615,-1.08748 1.27315,-1.51187 3.12983,-2.44021c2.14844,-1.08748 4.93346,-2.12192 6.36576,-2.36064c1.53839,-0.26524 4.48256,-0.15914 6.10052,0.21219zM10.99989,19.20652h0.90182c0.50396,0 1.11401,0.18567 1.3262,0.42438c0.53048,0.50396 0.557,1.53839 0.05305,2.04235c-0.34481,0.34481 -0.34481,0.557 0,1.64449c0.37134,1.24663 0.31829,1.80363 -0.1061,1.29968c-0.13262,-0.13262 -0.37134,-0.74267 -0.557,-1.37925c-0.45091,-1.61796 -1.08748,-1.51187 -1.08748,0.21219c0,0.71615 -0.1061,1.3262 -0.26524,1.3262c-0.15914,0 -0.26524,-1.11401 -0.26524,-2.78502zM11.53037,20.53272c0,0.95486 0.07957,1.06096 0.6631,1.06096c0.37134,0 0.6631,-0.1061 0.6631,-0.23872c0,-0.13262 0.07957,-0.42438 0.15914,-0.63658c0.07957,-0.21219 -0.05305,-0.58353 -0.29176,-0.82224c-0.7692,-0.74267 -1.19358,-0.53048 -1.19358,0.63658zM22.93569,19.20652c0.15914,0 0.26524,0.39786 0.26524,0.87529c0,0.7692 0.07957,0.87529 0.74267,0.84877c0.63658,0 0.74267,0.1061 0.92834,1.19358c0.15914,0.74267 0.13262,1.45882 -0.05305,1.90973c-0.23872,0.61005 -0.42438,0.71615 -1.2201,0.68962l-0.92834,-0.02652v-2.7585c0,-1.64449 0.1061,-2.73197 0.26524,-2.73197zM23.73141,21.32844c-0.50396,0 -0.557,0.13262 -0.47743,1.51187c0.05305,1.16706 0.18567,1.53839 0.47743,1.53839c0.29176,0 0.42438,-0.37134 0.47743,-1.53839c0.07957,-1.37925 0.02652,-1.51187 -0.47743,-1.51187zM26.11857,19.20652c0.15914,0 0.26524,1.11401 0.26524,2.78502c0,1.67101 -0.1061,2.78502 -0.26524,2.78502c-0.15914,0 -0.26524,-1.11401 -0.26524,-2.78502c0,-1.67101 0.1061,-2.78502 0.26524,-2.78502zM33.86357,19.49828c0.34481,0 0.45091,0.07957 0.29176,0.15914c-0.18567,0.05305 -0.34481,0.34481 -0.34481,0.61005c0,0.26524 0.15914,0.557 0.34481,0.63658c0.26524,0.13262 0.26524,0.18567 0,0.31829c-0.23872,0.1061 -0.34481,0.74267 -0.34481,1.85668c0,1.3262 -0.07957,1.69754 -0.39786,1.69754c-0.31829,0 -0.39786,-0.39786 -0.45091,-1.80363c-0.02652,-1.9893 0,-2.67892 0.18567,-3.18288c0.05305,-0.15914 0.39786,-0.31829 0.71615,-0.29176zM16.56993,21.30191c0.39786,0.7692 0.34481,3.55422 -0.05305,3.4216c-0.18567,-0.07957 -0.37134,-0.50396 -0.42438,-0.95486c-0.1061,-0.92834 -0.42438,-1.08748 -0.82224,-0.39786c-0.18567,0.34481 -0.13262,0.61005 0.18567,0.98139c0.42438,0.45091 0.42438,0.47743 -0.21219,0.39786c-1.00791,-0.15914 -1.00791,-1.11401 -0.02652,-1.85668c0.82224,-0.61005 1.06096,-1.37925 0.557,-1.69754c-0.15914,-0.07957 -0.34481,0.02652 -0.42438,0.23872c-0.07957,0.23872 -0.34481,0.42438 -0.53048,0.42438c-0.31829,0 -0.31829,-0.1061 -0.1061,-0.53048c0.37134,-0.68962 1.48534,-0.68962 1.85668,-0.02652zM17.92265,20.851c0.15914,0.05305 0.26524,0.18567 0.26524,0.29176c-0.02652,0.1061 -0.02652,0.95486 -0.02652,1.90973c0,0.98139 -0.1061,1.72406 -0.26524,1.72406c-0.15914,0 -0.26524,-0.84877 -0.26524,-2.01582c0,-1.29968 0.1061,-1.96278 0.29176,-1.90973zM19.24885,20.851c0.61005,0.07957 0.63658,0.18567 0.71615,1.9893c0.05305,1.2201 -0.02652,1.93625 -0.21219,1.93625c-0.15914,0 -0.26524,-0.6631 -0.26524,-1.56492c0,-1.11401 -0.13262,-1.69754 -0.45091,-2.01582c-0.39786,-0.42438 -0.39786,-0.45091 0.21219,-0.34481zM20.94639,20.851c0.45091,0.07957 0.53048,0.31829 0.61005,2.01582c0.05305,1.19358 -0.02652,1.90973 -0.21219,1.90973c-0.15914,0 -0.26524,-0.68962 -0.26524,-1.67101c0,-0.98139 -0.13262,-1.80363 -0.31829,-2.01582c-0.29176,-0.26524 -0.23872,-0.31829 0.18567,-0.23872zM28.74444,20.851c0.557,0.05305 0.71615,0.23872 0.7692,0.92834c0.07957,0.82224 0.02652,0.87529 -0.74267,0.87529c-0.7692,0 -0.82224,0.05305 -0.74267,0.84877c0.1061,0.98139 0.71615,1.3262 0.92834,0.50396c0.18567,-0.74267 0.6631,-0.71615 0.557,0.02652c-0.05305,0.50396 -0.23872,0.61005 -1.00791,0.61005h-0.92834l-0.07957,-1.53839c-0.05305,-0.95486 0.05305,-1.69754 0.23872,-1.93625c0.18567,-0.21219 0.63658,-0.37134 1.00791,-0.31829zM28.32006,21.24886c-0.58353,0.21219 -0.39786,1.14053 0.18567,1.14053c0.34481,0 0.53048,-0.18567 0.53048,-0.50396c0,-0.58353 -0.23872,-0.79572 -0.71615,-0.63658zM30.89289,20.79796c0.15914,0 0.26524,0.13262 0.26524,0.31829c0,0.23872 0.07957,0.23872 0.31829,0c0.37134,-0.37134 0.74267,-0.42438 0.74267,-0.07957c0,0.13262 -0.23872,0.29176 -0.53048,0.37134c-0.45091,0.1061 -0.53048,0.37134 -0.53048,1.75058c0,0.90182 -0.1061,1.61796 -0.26524,1.61796c-0.15914,0 -0.26524,-0.84877 -0.26524,-1.9893c0,-1.14053 0.1061,-1.9893 0.26524,-1.9893zM34.89801,20.851c0.21219,0.07957 0.50396,0.7692 0.6631,1.56492c0.29176,1.51187 0.42438,1.40577 0.79572,-0.63658c0.07957,-0.53048 0.26524,-0.98139 0.39786,-0.98139c0.31829,0 0.29176,0.37134 -0.23872,2.51978c-0.53048,2.17497 -0.71615,2.51978 -1.3262,2.51978c-0.42438,-0.02652 -0.42438,-0.02652 0,-0.37134c0.42438,-0.29176 0.42438,-0.47743 0.05305,-2.04235c-0.21219,-0.92834 -0.45091,-1.90973 -0.53048,-2.20149c-0.1061,-0.34481 -0.05305,-0.45091 0.18567,-0.37134zM14.89891,26.31495c0.82224,0.7692 1.67101,3.26245 1.67101,4.93346c0,0.39786 0.1061,0.92834 0.23872,1.16706c0.37134,0.68962 0.53048,3.95208 0.26524,4.93346c-0.18567,0.6631 -0.50396,0.98139 -1.3262,1.35272c-1.96278,0.90182 -2.59935,-0.18567 -3.58074,-6.04747c-0.68962,-4.05817 -0.71615,-5.94138 -0.1061,-6.68405c0.557,-0.6631 1.90973,-0.47743 2.83807,0.34481zM10.94684,26.10276c0.39786,0 0.45091,0.23872 0.37134,1.77711c-0.13262,2.94416 1.19358,9.76083 2.0954,10.87484c0.31829,0.37134 0.13262,0.45091 -1.08748,0.37134c-1.61796,-0.1061 -3.05026,-3.3155 -3.4216,-7.58586c-0.23872,-2.73197 0,-4.05817 0.90182,-4.82737c0.37134,-0.34481 0.90182,-0.61005 1.14053,-0.61005zM36.09159,31.5667c-1.08748,7.24105 -1.96278,8.88554 -3.95208,7.50629c-1.59144,-1.14053 -1.59144,-1.14053 -1.40577,-3.50117c0.1061,-1.19358 0.29176,-2.6524 0.42438,-3.23593c0.13262,-0.58353 0.37134,-1.83016 0.557,-2.78502c0.34481,-1.90973 0.7692,-2.5463 1.96278,-3.07678c2.46673,-1.08748 3.12983,0.26524 2.41368,5.09261zM38.45223,27.482c0.58353,0.68962 0.6631,1.03444 0.6631,2.89112c0,2.22802 -0.557,5.49047 -1.24663,7.188c-0.50396,1.29968 -1.48534,2.06887 -2.59935,2.06887h-0.84877l0.50396,-1.03444c0.63658,-1.29968 1.83016,-8.11634 1.80363,-10.23826c-0.02652,-0.87529 -0.02652,-1.67101 -0.02652,-1.77711c0.05305,-0.37134 1.14053,0.15914 1.75058,0.90182zM8.37401,30.29355c0.23872,3.2094 0.92834,6.25966 1.72406,7.74501l0.6631,1.19358l-0.6631,-0.63658c-0.82224,-0.7692 -1.3262,-2.28106 -1.8832,-5.43742c-0.45091,-2.59935 -0.47743,-3.66031 -0.21219,-4.66822c0.13262,-0.45091 0.26524,0.1061 0.37134,1.80363zM39.96409,29.04692c0.68962,1.77711 -0.95486,9.41602 -2.17497,10.18522c-0.39786,0.23872 -0.31829,0 0.23872,-0.98139c0.68962,-1.2201 1.37925,-4.37646 1.53839,-7.34715c0.13262,-1.93625 0.21219,-2.36064 0.39786,-1.85668zM7.81701,32.60113c0.26524,1.59144 0.557,3.23593 0.6631,3.63379c0.13262,0.47743 0.07957,0.74267 -0.1061,0.74267c-0.47743,0 -0.79572,-0.90182 -1.19358,-3.4216c-0.31829,-1.83016 -0.31829,-2.62588 -0.1061,-3.15636c0.26524,-0.63658 0.34481,-0.39786 0.74267,2.20149zM40.62719,30.3466c0.05305,0 0.21219,0.29176 0.34481,0.6631c0.47743,1.24663 -0.84877,7.05538 -1.48534,6.41881c-0.05305,-0.05305 0.05305,-0.92834 0.26524,-1.93625c0.21219,-1.00791 0.47743,-2.57283 0.58353,-3.50117c0.07957,-0.90182 0.21219,-1.64449 0.29176,-1.64449z" fill="none" stroke-width="0"></path><path d="M27.71001,8.72954c2.49326,0.58353 6.44533,2.62588 7.50629,3.8725c1.3262,1.53839 2.25454,3.39507 2.86459,5.72918c0.557,2.14844 0.98139,7.37367 0.6631,8.19592c-0.15914,0.42438 -0.18567,0.42438 -0.557,-0.05305c-0.23872,-0.34481 -0.37134,-1.19358 -0.39786,-2.51978c0,-2.99721 -0.42438,-4.90694 -1.67101,-7.45324l-1.11401,-2.33411l-2.7585,-1.08748c-5.62309,-2.20149 -8.7264,-2.33411 -14.95954,-0.63658l-3.66031,1.00791l-0.90182,1.48534c-0.50396,0.82224 -1.03444,1.61796 -1.16706,1.80363c-0.68962,0.79572 -1.40577,3.76641 -1.53839,6.49838c-0.1061,1.93625 -0.26524,2.97069 -0.50396,3.15636c-0.31829,0.26524 -0.37134,-0.13262 -0.37134,-2.22802c0,-4.13774 1.06096,-8.01025 2.97069,-10.84832c0.71615,-1.08748 1.27315,-1.51187 3.12983,-2.44021c2.14844,-1.08748 4.93346,-2.12192 6.36576,-2.36064c1.53839,-0.26524 4.48256,-0.15914 6.10052,0.21219zM10.99989,19.20652h0.90182c0.50396,0 1.11401,0.18567 1.3262,0.42438c0.53048,0.50396 0.557,1.53839 0.05305,2.04235c-0.34481,0.34481 -0.34481,0.557 0,1.64449c0.37134,1.24663 0.31829,1.80363 -0.1061,1.29968c-0.13262,-0.13262 -0.37134,-0.74267 -0.557,-1.37925c-0.45091,-1.61796 -1.08748,-1.51187 -1.08748,0.21219c0,0.71615 -0.1061,1.3262 -0.26524,1.3262c-0.15914,0 -0.26524,-1.11401 -0.26524,-2.78502zM11.53037,20.53272c0,0.95486 0.07957,1.06096 0.6631,1.06096c0.37134,0 0.6631,-0.1061 0.6631,-0.23872c0,-0.13262 0.07957,-0.42438 0.15914,-0.63658c0.07957,-0.21219 -0.05305,-0.58353 -0.29176,-0.82224c-0.7692,-0.74267 -1.19358,-0.53048 -1.19358,0.63658zM22.93569,19.20652c0.15914,0 0.26524,0.39786 0.26524,0.87529c0,0.7692 0.07957,0.87529 0.74267,0.84877c0.63658,0 0.74267,0.1061 0.92834,1.19358c0.15914,0.74267 0.13262,1.45882 -0.05305,1.90973c-0.23872,0.61005 -0.42438,0.71615 -1.2201,0.68962l-0.92834,-0.02652v-2.7585c0,-1.64449 0.1061,-2.73197 0.26524,-2.73197zM23.73141,21.32844c-0.50396,0 -0.557,0.13262 -0.47743,1.51187c0.05305,1.16706 0.18567,1.53839 0.47743,1.53839c0.29176,0 0.42438,-0.37134 0.47743,-1.53839c0.07957,-1.37925 0.02652,-1.51187 -0.47743,-1.51187zM26.11857,19.20652c0.15914,0 0.26524,1.11401 0.26524,2.78502c0,1.67101 -0.1061,2.78502 -0.26524,2.78502c-0.15914,0 -0.26524,-1.11401 -0.26524,-2.78502c0,-1.67101 0.1061,-2.78502 0.26524,-2.78502zM33.86357,19.49828c0.34481,0 0.45091,0.07957 0.29176,0.15914c-0.18567,0.05305 -0.34481,0.34481 -0.34481,0.61005c0,0.26524 0.15914,0.557 0.34481,0.63658c0.26524,0.13262 0.26524,0.18567 0,0.31829c-0.23872,0.1061 -0.34481,0.74267 -0.34481,1.85668c0,1.3262 -0.07957,1.69754 -0.39786,1.69754c-0.31829,0 -0.39786,-0.39786 -0.45091,-1.80363c-0.02652,-1.9893 0,-2.67892 0.18567,-3.18288c0.05305,-0.15914 0.39786,-0.31829 0.71615,-0.29176zM16.56993,21.30191c0.39786,0.7692 0.34481,3.55422 -0.05305,3.4216c-0.18567,-0.07957 -0.37134,-0.50396 -0.42438,-0.95486c-0.1061,-0.92834 -0.42438,-1.08748 -0.82224,-0.39786c-0.18567,0.34481 -0.13262,0.61005 0.18567,0.98139c0.42438,0.45091 0.42438,0.47743 -0.21219,0.39786c-1.00791,-0.15914 -1.00791,-1.11401 -0.02652,-1.85668c0.82224,-0.61005 1.06096,-1.37925 0.557,-1.69754c-0.15914,-0.07957 -0.34481,0.02652 -0.42438,0.23872c-0.07957,0.23872 -0.34481,0.42438 -0.53048,0.42438c-0.31829,0 -0.31829,-0.1061 -0.1061,-0.53048c0.37134,-0.68962 1.48534,-0.68962 1.85668,-0.02652zM17.92265,20.851c0.15914,0.05305 0.26524,0.18567 0.26524,0.29176c-0.02652,0.1061 -0.02652,0.95486 -0.02652,1.90973c0,0.98139 -0.1061,1.72406 -0.26524,1.72406c-0.15914,0 -0.26524,-0.84877 -0.26524,-2.01582c0,-1.29968 0.1061,-1.96278 0.29176,-1.90973zM19.24885,20.851c0.61005,0.07957 0.63658,0.18567 0.71615,1.9893c0.05305,1.2201 -0.02652,1.93625 -0.21219,1.93625c-0.15914,0 -0.26524,-0.6631 -0.26524,-1.56492c0,-1.11401 -0.13262,-1.69754 -0.45091,-2.01582c-0.39786,-0.42438 -0.39786,-0.45091 0.21219,-0.34481zM20.94639,20.851c0.45091,0.07957 0.53048,0.31829 0.61005,2.01582c0.05305,1.19358 -0.02652,1.90973 -0.21219,1.90973c-0.15914,0 -0.26524,-0.68962 -0.26524,-1.67101c0,-0.98139 -0.13262,-1.80363 -0.31829,-2.01582c-0.29176,-0.26524 -0.23872,-0.31829 0.18567,-0.23872zM28.74444,20.851c0.557,0.05305 0.71615,0.23872 0.7692,0.92834c0.07957,0.82224 0.02652,0.87529 -0.74267,0.87529c-0.7692,0 -0.82224,0.05305 -0.74267,0.84877c0.1061,0.98139 0.71615,1.3262 0.92834,0.50396c0.18567,-0.74267 0.6631,-0.71615 0.557,0.02652c-0.05305,0.50396 -0.23872,0.61005 -1.00791,0.61005h-0.92834l-0.07957,-1.53839c-0.05305,-0.95486 0.05305,-1.69754 0.23872,-1.93625c0.18567,-0.21219 0.63658,-0.37134 1.00791,-0.31829zM28.32006,21.24886c-0.58353,0.21219 -0.39786,1.14053 0.18567,1.14053c0.34481,0 0.53048,-0.18567 0.53048,-0.50396c0,-0.58353 -0.23872,-0.79572 -0.71615,-0.63658zM30.89289,20.79796c0.15914,0 0.26524,0.13262 0.26524,0.31829c0,0.23872 0.07957,0.23872 0.31829,0c0.37134,-0.37134 0.74267,-0.42438 0.74267,-0.07957c0,0.13262 -0.23872,0.29176 -0.53048,0.37134c-0.45091,0.1061 -0.53048,0.37134 -0.53048,1.75058c0,0.90182 -0.1061,1.61796 -0.26524,1.61796c-0.15914,0 -0.26524,-0.84877 -0.26524,-1.9893c0,-1.14053 0.1061,-1.9893 0.26524,-1.9893zM34.89801,20.851c0.21219,0.07957 0.50396,0.7692 0.6631,1.56492c0.29176,1.51187 0.42438,1.40577 0.79572,-0.63658c0.07957,-0.53048 0.26524,-0.98139 0.39786,-0.98139c0.31829,0 0.29176,0.37134 -0.23872,2.51978c-0.53048,2.17497 -0.71615,2.51978 -1.3262,2.51978c-0.42438,-0.02652 -0.42438,-0.02652 0,-0.37134c0.42438,-0.29176 0.42438,-0.47743 0.05305,-2.04235c-0.21219,-0.92834 -0.45091,-1.90973 -0.53048,-2.20149c-0.1061,-0.34481 -0.05305,-0.45091 0.18567,-0.37134zM14.89891,26.31495c0.82224,0.7692 1.67101,3.26245 1.67101,4.93346c0,0.39786 0.1061,0.92834 0.23872,1.16706c0.37134,0.68962 0.53048,3.95208 0.26524,4.93346c-0.18567,0.6631 -0.50396,0.98139 -1.3262,1.35272c-1.96278,0.90182 -2.59935,-0.18567 -3.58074,-6.04747c-0.68962,-4.05817 -0.71615,-5.94138 -0.1061,-6.68405c0.557,-0.6631 1.90973,-0.47743 2.83807,0.34481zM10.94684,26.10276c0.39786,0 0.45091,0.23872 0.37134,1.77711c-0.13262,2.94416 1.19358,9.76083 2.0954,10.87484c0.31829,0.37134 0.13262,0.45091 -1.08748,0.37134c-1.61796,-0.1061 -3.05026,-3.3155 -3.4216,-7.58586c-0.23872,-2.73197 0,-4.05817 0.90182,-4.82737c0.37134,-0.34481 0.90182,-0.61005 1.14053,-0.61005zM36.09159,31.5667c-1.08748,7.24105 -1.96278,8.88554 -3.95208,7.50629c-1.59144,-1.14053 -1.59144,-1.14053 -1.40577,-3.50117c0.1061,-1.19358 0.29176,-2.6524 0.42438,-3.23593c0.13262,-0.58353 0.37134,-1.83016 0.557,-2.78502c0.34481,-1.90973 0.7692,-2.5463 1.96278,-3.07678c2.46673,-1.08748 3.12983,0.26524 2.41368,5.09261zM38.45223,27.482c0.58353,0.68962 0.6631,1.03444 0.6631,2.89112c0,2.22802 -0.557,5.49047 -1.24663,7.188c-0.50396,1.29968 -1.48534,2.06887 -2.59935,2.06887h-0.84877l0.50396,-1.03444c0.63658,-1.29968 1.83016,-8.11634 1.80363,-10.23826c-0.02652,-0.87529 -0.02652,-1.67101 -0.02652,-1.77711c0.05305,-0.37134 1.14053,0.15914 1.75058,0.90182zM8.37401,30.29355c0.23872,3.2094 0.92834,6.25966 1.72406,7.74501l0.6631,1.19358l-0.6631,-0.63658c-0.82224,-0.7692 -1.3262,-2.28106 -1.8832,-5.43742c-0.45091,-2.59935 -0.47743,-3.66031 -0.21219,-4.66822c0.13262,-0.45091 0.26524,0.1061 0.37134,1.80363zM39.96409,29.04692c0.68962,1.77711 -0.95486,9.41602 -2.17497,10.18522c-0.39786,0.23872 -0.31829,0 0.23872,-0.98139c0.68962,-1.2201 1.37925,-4.37646 1.53839,-7.34715c0.13262,-1.93625 0.21219,-2.36064 0.39786,-1.85668zM7.81701,32.60113c0.26524,1.59144 0.557,3.23593 0.6631,3.63379c0.13262,0.47743 0.07957,0.74267 -0.1061,0.74267c-0.47743,0 -0.79572,-0.90182 -1.19358,-3.4216c-0.31829,-1.83016 -0.31829,-2.62588 -0.1061,-3.15636c0.26524,-0.63658 0.34481,-0.39786 0.74267,2.20149zM40.62719,30.3466c0.05305,0 0.21219,0.29176 0.34481,0.6631c0.47743,1.24663 -0.84877,7.05538 -1.48534,6.41881c-0.05305,-0.05305 0.05305,-0.92834 0.26524,-1.93625c0.21219,-1.00791 0.47743,-2.57283 0.58353,-3.50117c0.07957,-0.90182 0.21219,-1.64449 0.29176,-1.64449z" fill="#57336a" stroke-width="0"></path><path d="M2,24c0,-12.15026 9.84974,-22 22,-22c12.15026,0 22,9.84974 22,22c0,12.15026 -9.84974,22 -22,22c-12.15026,0 -22,-9.84974 -22,-22z" id="base 1 5 1" fill="none" stroke-width="1"></path><path d="M2,24c0,-12.15026 9.84974,-22 22,-22c12.15026,0 22,9.84974 22,22c0,12.15026 -9.84974,22 -22,22c-12.15026,0 -22,-9.84974 -22,-22z" id="base 1 1 1" fill="none" stroke-width="1"></path><g fill="#000000" stroke-width="1" font-family="Roboto, sans-serif" font-weight="400" font-size="14" text-anchor="start"><g></g></g><rect x="2" y="2" width="44" height="22" fill="none" stroke-width="1"></rect><path d="M2,24v-22h44v22z" fill="none" stroke-width="1"></path><path d="M2,24v-22h44v22z" fill="none" stroke-width="1"></path><path d="M2,24v-22h44v22z" fill="none" stroke-width="1"></path><path d="M2,24v-22h44v22z" fill="none" stroke-width="1"></path><g fill="#000000" stroke-width="1" font-family="Roboto, sans-serif" font-weight="400" font-size="14" text-anchor="start"><g></g></g><rect x="2" y="2" width="44" height="22" fill="none" stroke-width="1"></rect><path d="M2,24v-22h44v22z" fill="none" stroke-width="1"></path><path d="M2,24v-22h44v22z" fill="none" stroke-width="1"></path><path d="M2,24v-22h44v22z" fill="none" stroke-width="1"></path><path d="M2,24v-22h44v22z" fill="none" stroke-width="1"></path></g></svg>