<svg version="1.1" xmlns="http://www.w3.org/2000/svg" width="48" height="48">
    <defs>
        <linearGradient x1="0" y1="0" x2="0" y2="0" gradientUnits="userSpaceOnUse" id="color-1">
            <stop offset="1" stop-color="#000000" stop-opacity="0.01"></stop>
            <stop offset="1" stop-color="#000000" stop-opacity="0"></stop>
        </linearGradient>
        <filter id="dropshadow-base">
            <feColorMatrix type="matrix" values="0 0 0 0 0  0 0 0 0 0  0 0 0 0 0  0 0 0 .8 0"></feColorMatrix>
            <feOffset dx="0" dy="1"></feOffset>
            <feGaussianBlur stdDeviation="1"></feGaussianBlur>
            <feComposite in="SourceGraphic"></feComposite>
        </filter>
        <filter id="dropshadow-banner" x="-10%" y="-10%" width="120%" height="130%">
            <feColorMatrix type="matrix" values="0 0 0 0 0  0 0 0 0 0  0 0 0 0 0  0 0 0 .4 0"></feColorMatrix>
            <feOffset dx="0" dy="1"></feOffset>
            <feGaussianBlur stdDeviation="0.5"></feGaussianBlur>
            <feComposite in="SourceGraphic"></feComposite>
        </filter>
    </defs>
    <g fill="none" fill-rule="nonzero" stroke="none" stroke-width="none" stroke-linecap="butt" stroke-linejoin="miter"
       stroke-miterlimit="10" stroke-dasharray="" stroke-dashoffset="0" font-family="none" font-weight="none"
       font-size="none" text-anchor="none" style="mix-blend-mode: normal">
        <path d="M2,24c0,-12.15026 9.84974,-22 22,-22c12.15026,0 22,9.84974 22,22c0,12.15026 -9.84974,22 -22,22c-12.15026,0 -22,-9.84974 -22,-22z"
              id="base 1 5" fill="#512da8" stroke-width="1"></path>
        <path d="" fill="url(#color-1)" stroke-width="1"></path>
        <path d="M24.53883,11.04552c2.31626,0.04121 3.62688,0.39566 6.18218,1.67331c1.47548,0.74186 1.60737,0.82429 2.23383,1.45075c1.81344,1.79695 2.92623,4.59954 3.25595,8.15223c0.10716,1.15401 0.06594,3.89065 -0.0577,4.01429c-0.04946,0.04946 -0.19783,-0.07419 -0.39566,-0.31323l-0.31323,-0.38742l0.04946,-0.70065c0.09067,-1.29414 -0.15662,-3.54445 -0.577,-5.16006c-0.19783,-0.76659 -0.76659,-2.00303 -1.37657,-2.99217c-0.18134,-0.29674 -0.33796,-0.6347 -0.33796,-0.73362c-0.00824,-0.21432 -0.52755,-0.44512 -3.53621,-1.59088c-2.2668,-0.85726 -4.16267,-1.13752 -6.6273,-0.98915c-1.40954,0.08243 -1.54142,0.10716 -3.44553,0.61822c-1.08806,0.2885 -2.47287,0.66768 -3.0746,0.84078l-1.09631,0.30499l-0.43687,0.66768c-0.24729,0.37093 -0.60997,1.00563 -0.82429,1.42602c-0.25553,0.5193 -0.41215,0.7501 -0.48633,0.71713c-0.08243,-0.02473 -0.20607,0.18959 -0.41215,0.72538c-0.61822,1.6321 -0.79956,2.68719 -0.85726,4.96223l-0.04946,1.8052l-0.29674,0.32972c-0.2885,0.32147 -0.29674,0.32147 -0.3462,0.13189c-0.03297,-0.10716 -0.0577,-0.92321 -0.06594,-1.8052c-0.00824,-1.36008 0.02473,-1.79695 0.19783,-2.80259c0.3462,-2.04424 0.77483,-3.44553 1.48372,-4.86331c0.42039,-0.84902 1.31062,-2.15964 1.69804,-2.50584c0.1731,-0.16486 0.91496,-0.58525 1.64858,-0.94793c2.30801,-1.14576 4.19564,-1.79695 5.72058,-1.9783c0.36269,-0.04121 1.32711,-0.06594 2.14316,-0.04946zM13.1224,19.98907h0.70065c1.26116,0 1.56615,0.26377 1.50845,1.28589c-0.02473,0.59349 -0.04946,0.64295 -0.28026,0.83253l-0.25553,0.18959l0.27202,0.98915c0.14837,0.54403 0.29674,1.06333 0.32147,1.15401c0.04121,0.14013 0.01649,0.16486 -0.18959,0.16486c-0.2308,0 -0.23904,-0.01649 -0.54403,-1.11279l-0.32147,-1.11279h-0.62646l-0.02473,1.08806l-0.02473,1.09631l-0.26377,0.02473l-0.27202,0.02473zM14.07858,20.31879h-0.37917v1.75574l0.41215,-0.04121c0.2308,-0.02473 0.48633,-0.10716 0.56876,-0.18134c0.33796,-0.30499 0.28026,-1.26116 -0.07419,-1.45075c-0.08243,-0.04946 -0.32147,-0.08243 -0.52755,-0.08243zM22.84903,19.98907h0.49457v0.82429c0,0.45336 0.01649,0.82429 0.04121,0.82429c0.02473,0 0.14837,-0.07419 0.28026,-0.1731c0.30499,-0.22256 0.64295,-0.18134 0.8655,0.1154c0.14837,0.19783 0.18134,0.37093 0.19783,1.18698c0.03297,1.14576 -0.01649,1.46724 -0.27202,1.72277c-0.2308,0.2308 -0.53579,0.25553 -0.84078,0.0577c-0.15662,-0.10716 -0.2308,-0.1154 -0.25553,-0.04121c-0.01649,0.04946 -0.14013,0.09891 -0.27202,0.09891h-0.23904zM23.49198,21.72833c-0.13189,0.07419 -0.14837,0.22256 -0.14837,1.26941c0,1.08806 0.01649,1.19522 0.15662,1.27765c0.2308,0.1154 0.46985,0.09891 0.61822,-0.04946c0.10716,-0.09891 0.13189,-0.33796 0.13189,-1.21995c0,-0.95618 -0.01649,-1.11279 -0.14837,-1.22819c-0.1731,-0.15662 -0.4039,-0.1731 -0.60997,-0.04946zM25.56919,19.98907h0.49457v4.61603h-0.49457zM32.22121,20.15393c0.29674,0 0.35444,0.02473 0.35444,0.16486c0,0.12364 -0.0577,0.16486 -0.20607,0.16486c-0.23904,0 -0.39566,0.29674 -0.35444,0.65119c0.01649,0.1731 0.07419,0.22256 0.29674,0.23904c0.15662,0.01649 0.26377,0.07419 0.26377,0.14013c0,0.06594 -0.10716,0.12364 -0.26377,0.14013l-0.27202,0.02473l-0.02473,1.45899l-0.01649,1.46724h-0.49457v-1.48372c0,-1.42602 -0.00824,-1.48372 -0.16486,-1.48372c-0.09067,0 -0.16486,-0.0577 -0.16486,-0.12364c0,-0.06594 0.06594,-0.12364 0.15662,-0.12364c0.12364,0 0.15662,-0.08243 0.19783,-0.4616c0.02473,-0.26377 0.10716,-0.52755 0.18959,-0.61822c0.09891,-0.10716 0.25553,-0.15662 0.50282,-0.15662zM17.63127,21.43158c0.28026,0.18959 0.35444,0.62646 0.35444,1.95357v1.21995h-0.19783c-0.25553,0 -0.32972,-0.25553 -0.30499,-1.09631c0.01649,-0.3462 -0.00824,-0.6347 -0.03297,-0.6347c-0.18959,0 -0.65119,0.39566 -0.75835,0.64295c-0.09891,0.2308 -0.09891,0.32972 -0.01649,0.52755c0.09067,0.21432 0.13189,0.23904 0.37917,0.21432c0.32147,-0.04121 0.32972,-0.01649 0.09067,0.23904c-0.1731,0.18134 -0.51106,0.24729 -0.6924,0.12364c-0.16486,-0.10716 -0.28026,-0.41215 -0.28026,-0.71713c0,-0.49457 0.18959,-0.74186 0.78308,-1.03861c0.52755,-0.25553 0.53579,-0.27202 0.53579,-0.58525c0,-0.45336 -0.12364,-0.64295 -0.4039,-0.64295c-0.27202,0 -0.39566,0.1154 -0.43687,0.41215c-0.01649,0.15662 -0.08243,0.21432 -0.24729,0.2308c-0.19783,0.02473 -0.2308,0 -0.2308,-0.16486c0.00824,-0.26377 0.18959,-0.56052 0.42039,-0.6924c0.27202,-0.14837 0.82429,-0.14013 1.03861,0.00824zM20.4998,21.50577l0.13189,0.20607l0.29674,-0.20607c0.37917,-0.25553 0.79132,-0.26377 0.96442,-0.01649c0.10716,0.14837 0.13189,0.4616 0.13189,1.64858v1.46724h-0.41215v-1.42602c0,-0.99739 -0.03297,-1.45899 -0.09891,-1.52494c-0.14013,-0.14013 -0.48633,-0.12364 -0.70889,0.03297c-0.1731,0.12364 -0.18134,0.1731 -0.18134,1.52494v1.39305h-0.41215v-1.34359c0,-1.07982 -0.02473,-1.37657 -0.13189,-1.52494c-0.14837,-0.21432 -0.41215,-0.2308 -0.67592,-0.04946c-0.1731,0.12364 -0.18134,0.1731 -0.18134,1.52494v1.39305h-0.49457v-3.21473h0.24729c0.16486,0 0.24729,0.04121 0.24729,0.12364c0,0.16486 0.0577,0.15662 0.30499,-0.04121c0.30499,-0.23904 0.8078,-0.22256 0.97266,0.03297zM28.2811,21.39037c0.21432,0.1154 0.33796,0.46985 0.36269,1.03861l0.01649,0.48633l-0.67592,0.02473l-0.68416,0.02473v0.56876c0,0.61822 0.1154,0.82429 0.45336,0.82429c0.26377,0 0.45336,-0.20607 0.45336,-0.50282c0,-0.19783 0.03297,-0.23904 0.20607,-0.23904c0.1731,0 0.20607,0.04121 0.20607,0.24729c0,0.55227 -0.30499,0.82429 -0.90672,0.82429c-0.65119,0 -0.90672,-0.4616 -0.90672,-1.6898c0,-0.85726 0.10716,-1.27765 0.37093,-1.50845c0.2308,-0.19783 0.82429,-0.25553 1.10455,-0.09891zM27.3002,22.35479v0.35444h0.90672v-0.39566c0,-0.2885 -0.04121,-0.44512 -0.14837,-0.53579c-0.37093,-0.33796 -0.75835,-0.03297 -0.75835,0.577zM30.82816,21.57995c0.02473,0.20607 0.00824,0.22256 -0.26377,0.22256c-0.18959,0 -0.35444,0.0577 -0.4616,0.16486c-0.14837,0.14837 -0.16486,0.27202 -0.16486,1.40129v1.23644h-0.49457v-3.21473h0.24729c0.20607,0 0.24729,0.03297 0.24729,0.20607c0,0.26377 0.04946,0.26377 0.33796,-0.04946c0.28026,-0.30499 0.5193,-0.2885 0.55227,0.03297zM33.06199,21.39037c0.2885,0 0.26377,-0.08243 0.51106,1.40129c0.09067,0.56052 0.18134,1.04685 0.20607,1.06333c0.09067,0.09067 0.15662,-0.14837 0.36269,-1.24468c0.21432,-1.15401 0.22256,-1.17874 0.43687,-1.20346c0.12364,-0.01649 0.22256,-0.00824 0.22256,0.02473c0,0.02473 -0.18959,0.87375 -0.41215,1.87938c-0.35444,1.56615 -0.45336,1.85465 -0.62646,2.01127c-0.27202,0.24729 -0.77483,0.26377 -0.77483,0.03297c0,-0.10716 0.08243,-0.1731 0.28026,-0.20607c0.16486,-0.03297 0.30499,-0.1154 0.32972,-0.19783c0.04121,-0.10716 -0.54403,-2.79434 -0.74186,-3.42081c-0.03297,-0.1154 0.00824,-0.14013 0.20607,-0.14013zM15.49636,25.26453c0.32972,0.07419 0.51106,0.19783 1.03036,0.6924c0.42039,0.39566 0.6347,0.65943 0.6347,0.77483c0,0.10716 0.0577,0.28026 0.13189,0.38742c0.07419,0.1154 0.1154,0.25553 0.09067,0.32972c-0.03297,0.06594 -0.01649,0.14013 0.03297,0.1731c0.04946,0.02473 0.06594,0.09067 0.04946,0.14013c-0.01649,0.04946 0.01649,0.18959 0.07419,0.29674c0.07419,0.14013 0.08243,0.23904 0.02473,0.30499c-0.04946,0.06594 -0.04121,0.1154 0.04946,0.14837c0.07419,0.02473 0.1154,0.08243 0.08243,0.12364c-0.02473,0.04121 0,0.23904 0.04946,0.43687c0.14013,0.56052 0.22256,1.24468 0.15662,1.41778c-0.03297,0.09891 0.02473,0.31323 0.14013,0.56052c0.14837,0.31323 0.20607,0.59349 0.2308,1.20346c0.02473,0.43687 0.08243,0.83253 0.12364,0.87375c0.13189,0.13189 0.09891,0.56052 -0.0577,0.72538c-0.12364,0.14013 -0.12364,0.14837 0.0577,0.14837c0.13189,0 0.1731,0.03297 0.13189,0.13189c-0.02473,0.07419 -0.07419,0.2308 -0.10716,0.3462c-0.02473,0.12364 -0.09067,0.24729 -0.13189,0.28026c-0.0577,0.03297 -0.0577,0.09891 0.01649,0.18134c0.08243,0.09891 0.07419,0.14837 -0.06594,0.2885c-0.09891,0.09891 -0.1731,0.22256 -0.1731,0.2885c0,0.26377 -1.30238,0.95618 -1.79695,0.95618c-0.39566,0 -0.91496,-0.53579 -1.17049,-1.21171c-0.577,-1.51669 -1.45075,-6.7427 -1.38481,-8.21818c0.0577,-1.16225 0.31323,-1.61561 1.01388,-1.78871c0.35444,-0.08243 0.32147,-0.08243 0.76659,0.00824zM13.61698,25.62722c0,0.01649 -0.0577,0.27202 -0.13189,0.56052c-0.18959,0.72538 -0.1154,1.87114 0.25553,4.22861c0.577,3.63512 0.82429,4.64076 1.40129,5.59693c0.15662,0.26377 0.2885,0.49457 0.2885,0.51106c0,0.01649 -0.27202,0.03297 -0.59349,0.03297c-1.41778,-0.00824 -2.22558,-0.88199 -2.74489,-2.9592c-0.0577,-0.25553 -0.18959,-0.75835 -0.28026,-1.12104c-0.37917,-1.55791 -0.54403,-4.26158 -0.30499,-5.1106c0.25553,-0.88199 0.79132,-1.44251 1.59912,-1.65682c0.43687,-0.1154 0.51106,-0.13189 0.51106,-0.08243zM33.62251,25.84154c0.3462,0.20607 0.49457,0.51106 0.60997,1.24468c0.1154,0.73362 0.0577,1.40129 -0.26377,3.53621c-0.73362,4.73967 -1.21171,6.07502 -2.23383,6.23164c-0.22256,0.04121 -0.37093,-0.02473 -0.84902,-0.33796c-0.31323,-0.21432 -0.66768,-0.42039 -0.77483,-0.4616c-0.10716,-0.04121 -0.1731,-0.09891 -0.14837,-0.13189c0.09067,-0.09067 -0.10716,-0.3462 -0.2308,-0.30499c-0.06594,0.03297 -0.12364,0.04121 -0.12364,0.02473c0,-0.01649 -0.0577,-0.32147 -0.12364,-0.66768c-0.10716,-0.56052 -0.10716,-0.67592 0,-0.98091c0.06594,-0.18959 0.14013,-0.72538 0.14837,-1.18698c0.01649,-0.4616 0.0577,-0.88199 0.08243,-0.93145c0.03297,-0.04946 0.07419,-0.18959 0.09891,-0.32147c0.01649,-0.12364 0.07419,-0.37917 0.1154,-0.56052c0.21432,-0.8655 0.24729,-1.12928 0.1731,-1.27765c-0.0577,-0.10716 -0.04121,-0.1731 0.04946,-0.25553c0.06594,-0.0577 0.1154,-0.18134 0.09891,-0.27202c-0.00824,-0.09891 0.00824,-0.21432 0.04121,-0.27202c0.09067,-0.14013 0.23904,-0.84902 0.2308,-1.11279c0,-0.1154 0.04946,-0.25553 0.10716,-0.31323c0.06594,-0.04946 0.09891,-0.15662 0.07419,-0.2308c-0.04121,-0.1731 0.26377,-0.59349 0.43687,-0.59349c0.06594,0 0.1154,-0.06594 0.1154,-0.15662c0,-0.2308 0.1731,-0.33796 1.00563,-0.58525c0.93969,-0.28026 1.03036,-0.2885 1.36008,-0.08243zM34.72706,26.03937c0.79132,0.12364 1.52494,0.81605 1.77222,1.68155c0.3462,1.18698 -0.13189,5.06114 -0.89023,7.16308c-0.49457,1.37657 -1.17049,1.9783 -2.3245,2.06073c-0.67592,0.04946 -0.79132,-0.01649 -0.55227,-0.31323c0.2308,-0.30499 0.46985,-0.8078 0.65119,-1.39305c0.25553,-0.82429 0.577,-2.4399 0.62646,-3.14879c0.02473,-0.3462 0.14013,-1.06333 0.25553,-1.59912c0.4039,-1.85465 0.45336,-3.32189 0.15662,-4.31104c-0.0577,-0.18959 -0.04946,-0.19783 0.30499,-0.14013zM11.12762,26.91311c0.04121,0 0.01649,0.24729 -0.04946,0.55227c-0.14837,0.72538 -0.09067,2.01951 0.18959,3.77525c0.41215,2.62124 0.92321,4.21212 1.56615,4.84683c0.37093,0.36269 0.32972,0.47809 -0.08243,0.22256c-0.81605,-0.50282 -1.30238,-1.73101 -1.82168,-4.61603c-0.18959,-1.04685 -0.2308,-1.52494 -0.2308,-2.63773c-0.00824,-1.22819 0.00824,-1.39305 0.1731,-1.75574c0.09891,-0.21432 0.21432,-0.38742 0.25553,-0.38742zM37.1175,27.6797c0.18134,0.38742 0.19783,0.53579 0.18959,1.66507c-0.00824,2.44814 -0.74186,5.803 -1.48372,6.77567c-0.22256,0.29674 -0.81605,0.76659 -0.96442,0.76659c-0.04946,0 0.06594,-0.15662 0.25553,-0.33796c0.46985,-0.47809 0.81605,-1.23644 1.12928,-2.48936c0.71713,-2.86853 0.96442,-5.69585 0.58525,-6.61081c-0.07419,-0.16486 -0.13189,-0.32972 -0.13189,-0.3462c0,-0.14013 0.25553,0.21432 0.42039,0.577zM10.43522,29.75692c0.08243,1.11279 0.27202,2.34098 0.56052,3.58566c0.14013,0.60997 0.27202,1.19522 0.2885,1.29414c0.1154,0.50282 -0.56876,-0.08243 -0.79132,-0.66768c-0.20607,-0.54403 -0.66768,-3.27243 -0.66768,-3.92362c0,-0.5193 0.09891,-0.85726 0.31323,-1.09631c0.18134,-0.20607 0.2308,-0.08243 0.29674,0.8078zM38.03246,29.55909c0.20607,0.39566 0.18959,1.11279 -0.0577,2.62124c-0.25553,1.56615 -0.3462,1.92884 -0.58525,2.40693c-0.1731,0.3462 -0.56876,0.71713 -0.65943,0.62646c-0.02473,-0.02473 0.09067,-0.62646 0.24729,-1.34359c0.30499,-1.39305 0.51106,-2.64597 0.58525,-3.65985c0.03297,-0.33796 0.06594,-0.70065 0.09067,-0.8078c0.04946,-0.25553 0.20607,-0.19783 0.37917,0.15662z"
              fill="none" stroke-width="0"></path>
        <g fill="#000000" stroke-width="1">
            <g>
                <path d="M22.39567,11.09498c-1.52494,0.18134 -3.41256,0.83253 -5.72058,1.9783c-0.73362,0.36269 -1.47548,0.78308 -1.64858,0.94793c-0.38742,0.3462 -1.27765,1.65682 -1.69804,2.50584c-0.70889,1.41778 -1.13752,2.81907 -1.48372,4.86331c-0.1731,1.00563 -0.20607,1.44251 -0.19783,2.80259c0.00824,0.88199 0.03297,1.69804 0.06594,1.8052c0.04946,0.18959 0.0577,0.18959 0.3462,-0.13189l0.29674,-0.32972l0.04946,-1.8052c0.0577,-2.27504 0.23904,-3.33013 0.85726,-4.96223c0.20607,-0.53579 0.32972,-0.7501 0.41215,-0.72538c0.07419,0.03297 0.2308,-0.19783 0.48633,-0.71713c0.21432,-0.42039 0.577,-1.05509 0.82429,-1.42602l0.43687,-0.66768l1.09631,-0.30499c0.60173,-0.1731 1.98654,-0.55227 3.0746,-0.84078c1.90411,-0.51106 2.036,-0.53579 3.44553,-0.61822c2.46463,-0.14837 4.3605,0.13189 6.6273,0.98915c3.00866,1.14576 3.52796,1.37657 3.53621,1.59088c0,0.09891 0.15662,0.43687 0.33796,0.73362c0.60997,0.98915 1.17874,2.22558 1.37657,2.99217c0.42039,1.61561 0.66768,3.86592 0.577,5.16006l-0.04946,0.70065l0.31323,0.38742c0.19783,0.23904 0.3462,0.36269 0.39566,0.31323c0.12364,-0.12364 0.16486,-2.86029 0.0577,-4.01429c-0.32972,-3.55269 -1.44251,-6.35528 -3.25595,-8.15223c-0.62646,-0.62646 -0.75835,-0.70889 -2.23383,-1.45075c-2.5553,-1.27765 -3.86592,-1.6321 -6.18218,-1.67331c-0.81605,-0.01649 -1.78047,0.00824 -2.14316,0.04946z"></path>
                <path d="M13.1224,22.30533v2.30801l0.27202,-0.02473l0.26377,-0.02473l0.02473,-1.09631l0.02473,-1.08806h0.31323h0.31323l0.32147,1.11279c0.30499,1.09631 0.31323,1.11279 0.54403,1.11279c0.20607,0 0.2308,-0.02473 0.18959,-0.16486c-0.02473,-0.09067 -0.1731,-0.60997 -0.32147,-1.15401l-0.27202,-0.98915l0.25553,-0.18959c0.2308,-0.18959 0.25553,-0.23904 0.28026,-0.83253c0.0577,-1.02212 -0.24729,-1.28589 -1.50845,-1.28589h-0.70065zM14.60613,20.40122c0.35444,0.18959 0.41215,1.14576 0.07419,1.45075c-0.08243,0.07419 -0.33796,0.15662 -0.56876,0.18134l-0.41215,0.04121v-0.88199v-0.87375h0.37917c0.20607,0 0.44512,0.03297 0.52755,0.08243z"></path>
                <path d="M22.84903,22.29709v2.30801h0.23904c0.13189,0 0.25553,-0.04946 0.27202,-0.09891c0.02473,-0.07419 0.09891,-0.06594 0.25553,0.04121c0.30499,0.19783 0.60997,0.1731 0.84078,-0.0577c0.25553,-0.25553 0.30499,-0.577 0.27202,-1.72277c-0.01649,-0.81605 -0.04946,-0.98915 -0.19783,-1.18698c-0.22256,-0.29674 -0.56052,-0.33796 -0.8655,-0.1154c-0.13189,0.09891 -0.25553,0.1731 -0.28026,0.1731c-0.02473,0 -0.04121,-0.37093 -0.04121,-0.82429v-0.82429h-0.24729h-0.24729zM24.10195,21.77778c0.13189,0.1154 0.14837,0.27202 0.14837,1.22819c0,0.88199 -0.02473,1.12104 -0.13189,1.21995c-0.14837,0.14837 -0.38742,0.16486 -0.61822,0.04946c-0.14013,-0.08243 -0.15662,-0.18959 -0.15662,-1.27765c0,-1.04685 0.01649,-1.19522 0.14837,-1.26941c0.20607,-0.12364 0.43687,-0.10716 0.60997,0.04946z"></path>
                <path d="M25.56919,22.29709v2.30801h0.24729h0.24729v-2.30801v-2.30801h-0.24729h-0.24729z"></path>
                <path d="M31.7184,20.31055c-0.08243,0.09067 -0.16486,0.35444 -0.18959,0.61822c-0.04121,0.37917 -0.07419,0.4616 -0.19783,0.4616c-0.09067,0 -0.15662,0.0577 -0.15662,0.12364c0,0.06594 0.07419,0.12364 0.16486,0.12364c0.15662,0 0.16486,0.0577 0.16486,1.48372v1.48372h0.24729h0.24729l0.01649,-1.46724l0.02473,-1.45899l0.27202,-0.02473c0.15662,-0.01649 0.26377,-0.07419 0.26377,-0.14013c0,-0.06594 -0.10716,-0.12364 -0.26377,-0.14013c-0.22256,-0.01649 -0.28026,-0.06594 -0.29674,-0.23904c-0.04121,-0.35444 0.1154,-0.65119 0.35444,-0.65119c0.14837,0 0.20607,-0.04121 0.20607,-0.16486c0,-0.14013 -0.0577,-0.16486 -0.35444,-0.16486c-0.24729,0 -0.4039,0.04946 -0.50282,0.15662z"></path>
                <path d="M16.59267,21.42334c-0.2308,0.13189 -0.41215,0.42863 -0.42039,0.6924c0,0.16486 0.03297,0.18959 0.2308,0.16486c0.16486,-0.01649 0.2308,-0.07419 0.24729,-0.2308c0.04121,-0.29674 0.16486,-0.41215 0.43687,-0.41215c0.28026,0 0.4039,0.18959 0.4039,0.64295c0,0.31323 -0.00824,0.32972 -0.53579,0.58525c-0.59349,0.29674 -0.78308,0.54403 -0.78308,1.03861c0,0.30499 0.1154,0.60997 0.28026,0.71713c0.18134,0.12364 0.5193,0.0577 0.6924,-0.12364c0.23904,-0.25553 0.2308,-0.28026 -0.09067,-0.23904c-0.24729,0.02473 -0.2885,0 -0.37917,-0.21432c-0.08243,-0.19783 -0.08243,-0.29674 0.01649,-0.52755c0.10716,-0.24729 0.56876,-0.64295 0.75835,-0.64295c0.02473,0 0.04946,0.2885 0.03297,0.6347c-0.02473,0.84078 0.04946,1.09631 0.30499,1.09631h0.19783v-1.21995c0,-1.32711 -0.07419,-1.76398 -0.35444,-1.95357c-0.21432,-0.14837 -0.76659,-0.15662 -1.03861,-0.00824z"></path>
                <path d="M19.52714,21.4728c-0.24729,0.19783 -0.30499,0.20607 -0.30499,0.04121c0,-0.08243 -0.08243,-0.12364 -0.24729,-0.12364h-0.24729v1.60737v1.60737h0.24729h0.24729v-1.39305c0,-1.35184 0.00824,-1.40129 0.18134,-1.52494c0.26377,-0.18134 0.52755,-0.16486 0.67592,0.04946c0.10716,0.14837 0.13189,0.44512 0.13189,1.52494v1.34359h0.20607h0.20607v-1.39305c0,-1.35184 0.00824,-1.40129 0.18134,-1.52494c0.22256,-0.15662 0.56876,-0.1731 0.70889,-0.03297c0.06594,0.06594 0.09891,0.52755 0.09891,1.52494v1.42602h0.20607h0.20607v-1.46724c0,-1.18698 -0.02473,-1.50021 -0.13189,-1.64858c-0.1731,-0.24729 -0.58525,-0.23904 -0.96442,0.01649l-0.29674,0.20607l-0.13189,-0.20607c-0.16486,-0.25553 -0.66768,-0.27202 -0.97266,-0.03297z"></path>
                <path d="M27.17656,21.48928c-0.26377,0.2308 -0.37093,0.65119 -0.37093,1.50845c0,1.22819 0.25553,1.6898 0.90672,1.6898c0.60173,0 0.90672,-0.27202 0.90672,-0.82429c0,-0.20607 -0.03297,-0.24729 -0.20607,-0.24729c-0.1731,0 -0.20607,0.04121 -0.20607,0.23904c0,0.29674 -0.18959,0.50282 -0.45336,0.50282c-0.33796,0 -0.45336,-0.20607 -0.45336,-0.82429v-0.56876l0.68416,-0.02473l0.67592,-0.02473l-0.01649,-0.48633c-0.02473,-0.56876 -0.14837,-0.92321 -0.36269,-1.03861c-0.28026,-0.15662 -0.87375,-0.09891 -1.10455,0.09891zM28.05855,21.77778c0.10716,0.09067 0.14837,0.24729 0.14837,0.53579v0.39566h-0.45336h-0.45336v-0.35444c0,-0.60997 0.38742,-0.91496 0.75835,-0.577z"></path>
                <path d="M30.27589,21.54698c-0.2885,0.31323 -0.33796,0.31323 -0.33796,0.04946c0,-0.1731 -0.04121,-0.20607 -0.24729,-0.20607h-0.24729v1.60737v1.60737h0.24729h0.24729v-1.23644c0,-1.12928 0.01649,-1.25292 0.16486,-1.40129c0.10716,-0.10716 0.27202,-0.16486 0.4616,-0.16486c0.27202,0 0.2885,-0.01649 0.26377,-0.22256c-0.03297,-0.32147 -0.27202,-0.33796 -0.55227,-0.03297z"></path>
                <path d="M32.85592,21.5305c0.19783,0.62646 0.78308,3.31365 0.74186,3.42081c-0.02473,0.08243 -0.16486,0.16486 -0.32972,0.19783c-0.19783,0.03297 -0.28026,0.09891 -0.28026,0.20607c0,0.2308 0.50282,0.21432 0.77483,-0.03297c0.1731,-0.15662 0.27202,-0.44512 0.62646,-2.01127c0.22256,-1.00563 0.41215,-1.85465 0.41215,-1.87938c0,-0.03297 -0.09891,-0.04121 -0.22256,-0.02473c-0.21432,0.02473 -0.22256,0.04946 -0.43687,1.20346c-0.20607,1.09631 -0.27202,1.33535 -0.36269,1.24468c-0.02473,-0.01649 -0.1154,-0.50282 -0.20607,-1.06333c-0.24729,-1.48372 -0.22256,-1.40129 -0.51106,-1.40129c-0.19783,0 -0.23904,0.02473 -0.20607,0.14013z"></path>
                <path d="M14.72977,25.25629c-0.70065,0.1731 -0.95618,0.62646 -1.01388,1.78871c-0.06594,1.47548 0.8078,6.70148 1.38481,8.21818c0.25553,0.67592 0.77483,1.21171 1.17049,1.21171c0.49457,0 1.79695,-0.6924 1.79695,-0.95618c0,-0.06594 0.07419,-0.18959 0.1731,-0.2885c0.14013,-0.14013 0.14837,-0.18959 0.06594,-0.2885c-0.07419,-0.08243 -0.07419,-0.14837 -0.01649,-0.18134c0.04121,-0.03297 0.10716,-0.15662 0.13189,-0.28026c0.03297,-0.1154 0.08243,-0.27202 0.10716,-0.3462c0.04121,-0.09891 0,-0.13189 -0.13189,-0.13189c-0.18134,0 -0.18134,-0.00824 -0.0577,-0.14837c0.15662,-0.16486 0.18959,-0.59349 0.0577,-0.72538c-0.04121,-0.04121 -0.09891,-0.43687 -0.12364,-0.87375c-0.02473,-0.60997 -0.08243,-0.89023 -0.2308,-1.20346c-0.1154,-0.24729 -0.1731,-0.4616 -0.14013,-0.56052c0.06594,-0.1731 -0.01649,-0.85726 -0.15662,-1.41778c-0.04946,-0.19783 -0.07419,-0.39566 -0.04946,-0.43687c0.03297,-0.04121 -0.00824,-0.09891 -0.08243,-0.12364c-0.09067,-0.03297 -0.09891,-0.08243 -0.04946,-0.14837c0.0577,-0.06594 0.04946,-0.16486 -0.02473,-0.30499c-0.0577,-0.10716 -0.09067,-0.24729 -0.07419,-0.29674c0.01649,-0.04946 0,-0.1154 -0.04946,-0.14013c-0.04946,-0.03297 -0.06594,-0.10716 -0.03297,-0.1731c0.02473,-0.07419 -0.01649,-0.21432 -0.09067,-0.32972c-0.07419,-0.10716 -0.13189,-0.28026 -0.13189,-0.38742c0,-0.1154 -0.21432,-0.37917 -0.6347,-0.77483c-0.5193,-0.49457 -0.70065,-0.61822 -1.03036,-0.6924c-0.44512,-0.09067 -0.41215,-0.09067 -0.76659,-0.00824z"></path>
                <path d="M13.10592,25.70965c-0.8078,0.21432 -1.34359,0.77483 -1.59912,1.65682c-0.23904,0.84902 -0.07419,3.55269 0.30499,5.1106c0.09067,0.36269 0.22256,0.8655 0.28026,1.12104c0.5193,2.07721 1.32711,2.95096 2.74489,2.9592c0.32147,0 0.59349,-0.01649 0.59349,-0.03297c0,-0.01649 -0.13189,-0.24729 -0.2885,-0.51106c-0.577,-0.95618 -0.82429,-1.96181 -1.40129,-5.59693c-0.37093,-2.35747 -0.44512,-3.50323 -0.25553,-4.22861c0.07419,-0.2885 0.13189,-0.54403 0.13189,-0.56052c0,-0.04946 -0.07419,-0.03297 -0.51106,0.08243z"></path>
                <path d="M32.26243,25.92397c-0.83253,0.24729 -1.00563,0.35444 -1.00563,0.58525c0,0.09067 -0.04946,0.15662 -0.1154,0.15662c-0.1731,0 -0.47809,0.42039 -0.43687,0.59349c0.02473,0.07419 -0.00824,0.18134 -0.07419,0.2308c-0.0577,0.0577 -0.10716,0.19783 -0.10716,0.31323c0.00824,0.26377 -0.14013,0.97266 -0.2308,1.11279c-0.03297,0.0577 -0.04946,0.1731 -0.04121,0.27202c0.01649,0.09067 -0.03297,0.21432 -0.09891,0.27202c-0.09067,0.08243 -0.10716,0.14837 -0.04946,0.25553c0.07419,0.14837 0.04121,0.41215 -0.1731,1.27765c-0.04121,0.18134 -0.09891,0.43687 -0.1154,0.56052c-0.02473,0.13189 -0.06594,0.27202 -0.09891,0.32147c-0.02473,0.04946 -0.06594,0.46985 -0.08243,0.93145c-0.00824,0.4616 -0.08243,0.99739 -0.14837,1.18698c-0.10716,0.30499 -0.10716,0.42039 0,0.98091c0.06594,0.3462 0.12364,0.65119 0.12364,0.66768c0,0.01649 0.0577,0.00824 0.12364,-0.02473c0.12364,-0.04121 0.32147,0.21432 0.2308,0.30499c-0.02473,0.03297 0.04121,0.09067 0.14837,0.13189c0.10716,0.04121 0.4616,0.24729 0.77483,0.4616c0.47809,0.31323 0.62646,0.37917 0.84902,0.33796c1.02212,-0.15662 1.50021,-1.49197 2.23383,-6.23164c0.32147,-2.13491 0.37917,-2.80259 0.26377,-3.53621c-0.1154,-0.73362 -0.26377,-1.03861 -0.60997,-1.24468c-0.32972,-0.20607 -0.42039,-0.19783 -1.36008,0.08243z"></path>
                <path d="M34.42207,26.1795c0.29674,0.98915 0.24729,2.45639 -0.15662,4.31104c-0.1154,0.53579 -0.2308,1.25292 -0.25553,1.59912c-0.04946,0.70889 -0.37093,2.3245 -0.62646,3.14879c-0.18134,0.58525 -0.42039,1.08806 -0.65119,1.39305c-0.23904,0.29674 -0.12364,0.36269 0.55227,0.31323c1.15401,-0.08243 1.82992,-0.68416 2.3245,-2.06073c0.75835,-2.10194 1.23644,-5.97611 0.89023,-7.16308c-0.24729,-0.8655 -0.98091,-1.55791 -1.77222,-1.68155c-0.35444,-0.0577 -0.36269,-0.04946 -0.30499,0.14013z"></path>
                <path d="M10.87209,27.30053c-0.16486,0.36269 -0.18134,0.52755 -0.1731,1.75574c0,1.11279 0.04121,1.59088 0.2308,2.63773c0.5193,2.88502 1.00563,4.11321 1.82168,4.61603c0.41215,0.25553 0.45336,0.14013 0.08243,-0.22256c-0.64295,-0.6347 -1.15401,-2.22558 -1.56615,-4.84683c-0.28026,-1.75574 -0.33796,-3.04987 -0.18959,-3.77525c0.06594,-0.30499 0.09067,-0.55227 0.04946,-0.55227c-0.04121,0 -0.15662,0.1731 -0.25553,0.38742z"></path>
                <path d="M36.69711,27.1027c0,0.01649 0.0577,0.18134 0.13189,0.3462c0.37917,0.91496 0.13189,3.74228 -0.58525,6.61081c-0.31323,1.25292 -0.65943,2.01127 -1.12928,2.48936c-0.18959,0.18134 -0.30499,0.33796 -0.25553,0.33796c0.14837,0 0.74186,-0.46985 0.96442,-0.76659c0.74186,-0.97266 1.47548,-4.32752 1.48372,-6.77567c0.00824,-1.12928 -0.00824,-1.27765 -0.18959,-1.66507c-0.16486,-0.36269 -0.42039,-0.71713 -0.42039,-0.577z"></path>
                <path d="M10.13847,28.94911c-0.21432,0.23904 -0.31323,0.577 -0.31323,1.09631c0,0.65119 0.4616,3.37959 0.66768,3.92362c0.22256,0.58525 0.90672,1.17049 0.79132,0.66768c-0.01649,-0.09891 -0.14837,-0.68416 -0.2885,-1.29414c-0.2885,-1.24468 -0.47809,-2.47287 -0.56052,-3.58566c-0.06594,-0.89023 -0.1154,-1.01388 -0.29674,-0.8078z"></path>
                <path d="M37.65329,29.40247c-0.02473,0.10716 -0.0577,0.46985 -0.09067,0.8078c-0.07419,1.01388 -0.28026,2.2668 -0.58525,3.65985c-0.15662,0.71713 -0.27202,1.31886 -0.24729,1.34359c0.09067,0.09067 0.48633,-0.28026 0.65943,-0.62646c0.23904,-0.47809 0.32972,-0.84078 0.58525,-2.40693c0.24729,-1.50845 0.26377,-2.22558 0.0577,-2.62124c-0.1731,-0.35444 -0.32972,-0.41215 -0.37917,-0.15662z"></path>
            </g>
        </g>
        <path d="M2,24c0,-12.15026 9.84974,-22 22,-22c12.15026,0 22,9.84974 22,22c0,12.15026 -9.84974,22 -22,22c-12.15026,0 -22,-9.84974 -22,-22z"
              id="base 1 1 1" fill="none" stroke-width="1"></path>
        <g fill="#000000" stroke-width="1" font-family="Roboto, sans-serif" font-weight="400" font-size="14"
           text-anchor="start">
            <g></g>
        </g>
        <rect x="2" y="2" width="44" height="22" fill="none" stroke-width="1"></rect>
        <path d="M2,24v-22h44v22z" fill="none" stroke-width="1"></path>
        <path d="M2,24v-22h44v22z" fill="none" stroke-width="1"></path>
        <path d="M2,24v-22h44v22z" fill="none" stroke-width="1"></path>
        <path d="M2,24v-22h44v22z" fill="none" stroke-width="1"></path>
    </g>
</svg>